<?xml version="1.0" standalone="no"?>
<!DOCTYPE svg PUBLIC "-//W3C//DTD SVG 20010904//EN"
 "http://www.w3.org/TR/2001/REC-SVG-20010904/DTD/svg10.dtd">
<svg version="1.0" xmlns="http://www.w3.org/2000/svg"
 width="300.000000pt" height="300.000000pt" viewBox="0 0 300.000000 300.000000"
 preserveAspectRatio="xMidYMid meet">
<metadata>
Created by potrace 1.10, written by Peter Selinger 2001-2011
</metadata>
<g transform="translate(0.000000,300.000000) scale(0.100000,-0.100000)"
fill="#000000" stroke="none">
<path d="M394 2691 c-45 -27 -100 -97 -125 -157 -16 -39 -27 -53 -38 -50 -9 3
-54 15 -101 26 -80 20 -85 21 -97 4 -26 -36 -14 -44 107 -73 l95 -22 -3 -72
c-9 -172 69 -303 176 -299 18 1 47 -7 65 -18 86 -53 188 5 252 141 14 30 28
69 31 87 4 19 11 31 18 29 6 -3 37 -10 69 -17 57 -13 57 -13 57 -49 0 -20 7
-47 16 -60 14 -19 15 -40 9 -132 -7 -110 2 -183 29 -239 10 -22 19 -25 72 -28
33 -1 82 4 109 13 27 8 51 12 53 10 14 -14 -89 -105 -119 -105 -9 0 -27 -8
-40 -18 -26 -20 -88 -44 -159 -62 -71 -19 -241 -103 -289 -144 -24 -20 -59
-43 -78 -51 -39 -16 -76 -86 -74 -139 1 -17 1 -47 1 -66 0 -19 -2 -138 -3
-265 -3 -221 -9 -275 -36 -275 -4 0 -36 -26 -71 -58 -38 -34 -88 -67 -124 -82
-49 -21 -62 -30 -64 -50 -2 -19 5 -30 28 -44 28 -16 39 -17 95 -7 35 6 92 25
127 41 54 26 70 30 114 24 66 -8 89 0 103 35 10 22 9 36 -4 72 -42 113 -38
222 13 309 25 42 27 52 26 162 l-1 116 39 22 c21 12 38 25 38 31 0 5 5 9 10 9
6 0 10 -6 10 -14 0 -27 46 -51 188 -100 l142 -48 0 -175 c0 -96 -4 -172 -8
-169 -4 2 -60 25 -125 50 l-116 46 -36 -21 c-31 -18 -35 -26 -35 -61 0 -46
-23 -33 282 -152 l197 -77 -6 -82 c-5 -73 -10 -87 -38 -122 -18 -22 -39 -54
-48 -70 -8 -17 -25 -39 -37 -50 -12 -11 -26 -29 -31 -40 -5 -11 -15 -28 -21
-38 -11 -15 -10 -21 9 -37 13 -10 31 -16 42 -13 10 3 22 0 25 -6 4 -6 18 -11
31 -11 13 0 27 -5 30 -10 9 -15 73 -2 112 22 24 14 34 29 39 56 4 20 12 48 19
62 15 31 27 143 25 230 0 36 6 98 14 138 35 167 31 233 -19 348 -32 73 -25
169 17 236 16 25 36 49 44 52 18 7 33 44 36 91 1 19 7 35 13 35 5 0 113 -34
238 -76 l229 -76 29 28 c22 21 29 37 29 64 l0 36 -111 34 c-61 18 -113 38
-115 44 -9 28 -8 256 1 256 15 -1 59 -41 77 -71 29 -46 62 -43 118 10 68 65
92 124 89 226 -1 59 3 88 14 106 8 13 18 34 22 47 4 15 12 21 23 18 9 -3 37
-10 62 -16 l45 -11 0 -118 c0 -111 2 -121 30 -176 37 -72 75 -97 145 -97 27 1
62 -6 77 -14 60 -31 126 -11 190 59 46 49 74 99 93 165 7 23 17 42 22 42 6 0
46 -9 90 -21 93 -23 111 -20 106 18 -3 26 -8 29 -96 48 l-93 20 -3 80 c-3 106
-22 160 -72 213 -40 42 -44 43 -96 41 -34 -1 -64 4 -85 14 -62 33 -122 16
-189 -52 -23 -23 -54 -68 -69 -99 -15 -31 -29 -58 -30 -60 -1 -1 -37 6 -79 18
-41 11 -78 20 -81 20 -3 0 -5 11 -5 24 0 29 -24 56 -49 56 -10 0 -26 9 -36 20
-10 11 -31 20 -47 20 -18 0 -28 5 -28 15 0 26 -54 76 -90 84 -82 17 -190 -27
-204 -82 l-6 -24 -246 61 c-213 53 -248 64 -255 83 -7 20 -59 44 -89 41 -8 -1
-32 2 -53 6 -25 6 -42 4 -52 -4 -12 -10 -29 -9 -85 5 l-70 17 0 64 c0 85 -31
168 -82 217 -33 31 -46 37 -83 37 -27 0 -58 8 -77 20 -41 25 -94 25 -134 1z
m130 -21 c8 -8 6 -14 -6 -21 -63 -36 -131 -155 -149 -263 -19 -114 -5 -200 49
-308 2 -5 -10 -8 -26 -8 -70 0 -131 99 -139 227 -14 207 102 406 226 388 19
-2 39 -9 45 -15z m146 -45 c37 -33 71 -118 77 -194 3 -39 2 -71 -3 -71 -5 0
-41 9 -81 19 -60 16 -74 17 -83 5 -27 -31 -7 -48 78 -68 l84 -20 -6 -30 c-11
-51 -52 -132 -91 -174 -124 -138 -261 -25 -258 213 1 103 25 182 74 255 47 69
84 92 142 87 26 -2 56 -12 67 -22z m-508 -141 c59 -13 78 -21 78 -34 0 -14
-10 -14 -100 9 -66 17 -100 31 -100 40 0 9 7 11 22 8 12 -4 57 -14 100 -23z
m571 -140 c175 -43 177 -44 177 -60 0 -10 -6 -14 -17 -10 -10 3 -65 17 -123
31 -170 42 -180 45 -180 55 0 16 34 12 143 -16z m279 -47 c6 -9 12 -9 27 0 14
9 28 10 46 3 53 -20 14 -47 -45 -30 -50 14 -53 13 -48 -20 5 -33 -8 -38 -43
-20 -11 6 -19 7 -19 1 0 -5 6 -11 14 -14 7 -3 17 -20 21 -39 l8 -33 6 30 c5
25 12 31 41 36 l35 6 -27 11 c-41 17 -35 32 10 25 40 -7 55 -20 47 -42 -3 -7
-1 -19 5 -26 11 -14 7 -19 -35 -40 -11 -6 -21 -19 -23 -29 -3 -11 0 -16 7 -12
7 5 11 -6 11 -31 0 -22 7 -48 15 -59 19 -24 19 -53 1 -60 -15 -6 -40 -63 -32
-72 3 -2 12 10 20 27 23 43 68 64 118 56 35 -6 40 -5 35 9 -8 21 39 73 75 82
24 5 26 4 21 -18 -3 -12 -11 -27 -17 -33 -28 -24 -56 -69 -56 -90 0 -49 -155
-99 -179 -57 -9 14 -10 14 -11 1 -1 -54 108 -52 168 3 22 21 22 21 22 2 0 -34
-23 -52 -86 -68 -78 -20 -128 -20 -144 -1 -7 8 -17 15 -22 15 -6 0 -4 -7 3
-17 12 -14 12 -16 -1 -11 -14 4 -17 17 -36 140 -3 27 -1 83 6 127 12 77 11 81
-10 108 -19 24 -21 35 -15 88 4 33 10 64 12 69 7 11 65 -1 75 -17z m347 -107
c135 -33 298 -73 361 -88 87 -21 116 -32 118 -45 4 -20 -18 -17 -93 10 -22 8
-62 20 -90 25 -27 6 -164 37 -302 71 -173 41 -253 65 -253 74 0 7 3 13 7 13 4
0 117 -27 252 -60z m499 24 c12 -8 29 -29 37 -45 14 -26 14 -30 0 -35 -8 -3
-15 -14 -15 -24 0 -27 -12 -31 -52 -18 -28 8 -40 20 -54 49 -19 43 -41 66 -51
55 -4 -4 -3 -10 3 -14 6 -4 19 -22 29 -41 l17 -34 -24 7 c-12 3 -40 9 -61 12
-44 8 -52 16 -37 44 29 55 155 81 208 44z m-578 -54 c85 -21 141 -39 124 -39
-17 -1 -43 -10 -57 -21 -14 -11 -35 -20 -47 -20 -34 0 -79 -28 -100 -63 -16
-26 -26 -31 -59 -32 -36 -1 -41 2 -55 34 -8 20 -17 53 -20 74 -4 33 -2 39 19
47 14 5 27 21 31 35 3 14 7 25 8 25 0 -1 71 -18 156 -40z m1253 23 c4 -2 -13
-24 -38 -49 -88 -85 -146 -259 -131 -396 6 -61 30 -133 54 -160 14 -17 12 -18
-30 -18 -34 0 -52 6 -72 25 -62 57 -90 194 -67 319 24 127 113 263 187 286 26
8 78 4 97 -7z m155 -38 c39 -33 70 -106 78 -188 10 -96 9 -97 -73 -76 -74 18
-96 12 -91 -25 2 -13 14 -23 38 -29 117 -29 112 -26 106 -55 -13 -56 -68 -151
-105 -185 -22 -20 -58 -41 -80 -48 -55 -16 -105 10 -138 72 -65 126 -45 322
48 463 63 94 154 124 217 71z m-705 -30 c4 -8 21 -18 39 -23 23 -6 34 -15 36
-30 2 -12 -2 -22 -8 -22 -6 0 -8 5 -5 10 12 20 -16 9 -40 -15 -23 -22 -28 -23
-56 -11 -26 11 -28 14 -15 26 9 7 16 20 16 29 0 9 5 22 12 29 16 16 6 15 -28
-3 -31 -16 -39 -13 -31 10 8 20 73 21 80 0z m-513 -14 c14 -4 24 -14 24 -23
-1 -14 2 -14 34 -1 43 18 116 11 178 -16 41 -19 94 -75 94 -102 0 -12 2 -12 9
-1 21 34 112 -55 97 -94 -5 -13 -10 -13 -35 1 -34 17 -61 20 -61 5 0 -5 7 -10
15 -10 21 0 65 -22 65 -33 0 -5 -9 -20 -20 -34 -11 -14 -20 -34 -20 -44 0 -11
-7 -19 -15 -19 -19 0 -43 37 -51 78 -4 18 -11 32 -16 32 -13 0 0 -58 19 -88 8
-13 25 -28 39 -34 13 -6 24 -19 24 -30 0 -10 5 -18 10 -18 6 0 8 16 4 41 -6
37 -4 43 30 78 27 28 39 50 43 81 4 28 9 37 14 28 6 -9 9 -7 9 9 0 16 -13 31
-40 48 -43 27 -60 52 -60 88 0 19 8 26 37 35 20 6 39 10 41 7 8 -8 -11 -27
-40 -39 l-29 -13 40 -12 c22 -6 47 -21 56 -34 8 -12 15 -16 15 -9 0 8 9 10 28
6 42 -10 45 -18 17 -48 -14 -15 -25 -35 -24 -44 0 -13 3 -12 11 6 6 12 15 22
20 22 14 0 9 -207 -6 -244 -18 -44 -106 -142 -124 -138 -21 5 -118 106 -138
144 -13 24 -17 55 -16 118 1 113 -1 120 -45 120 -28 0 -43 8 -77 44 -26 26
-56 47 -77 51 -18 4 -39 15 -46 24 -11 15 -12 15 -13 0 0 -20 17 -34 52 -43
15 -3 50 -26 78 -51 35 -31 60 -45 79 -45 27 0 47 -21 34 -34 -4 -3 -28 -6
-54 -6 -26 0 -51 -5 -54 -11 -4 -6 -19 -7 -37 -4 -21 5 -28 4 -24 -4 8 -12 66
-15 66 -3 0 4 9 8 20 9 28 2 25 -16 -5 -27 -35 -13 -31 -22 8 -18 30 3 32 1
29 -27 -2 -16 -8 -34 -13 -39 -13 -14 -11 -28 4 -24 6 3 14 18 17 34 3 17 12
30 23 32 15 3 18 -2 15 -34 -3 -34 -6 -38 -44 -49 -54 -16 -150 -83 -166 -116
l-13 -26 -41 43 c-38 38 -40 43 -21 48 11 3 34 2 50 -1 23 -5 28 -3 22 7 -5 8
-25 11 -63 8 -43 -4 -63 -1 -89 14 -18 11 -33 25 -33 30 0 6 -7 8 -15 4 -8 -3
-28 0 -43 6 -15 6 -33 10 -39 9 -7 -1 -13 8 -13 20 0 22 0 22 -14 3 -8 -10
-17 -16 -21 -12 -4 4 7 26 24 50 20 28 33 61 37 93 8 61 29 105 50 105 8 0 12
5 9 10 -4 6 7 13 25 16 17 4 33 11 37 17 4 7 -5 8 -25 4 -35 -7 -39 -2 -17 27
36 48 85 64 145 47z m373 -78 c11 -6 -2 -23 -17 -23 -8 0 -24 9 -37 20 l-24
21 35 -7 c19 -3 38 -8 43 -11z m292 -23 c115 -28 109 -25 102 -43 -4 -11 -25
-9 -114 14 -59 16 -111 28 -115 29 -4 0 -5 7 -1 15 3 9 11 15 17 13 6 -2 56
-14 111 -28z m-245 -42 c22 -18 40 -39 40 -46 0 -7 -15 2 -33 20 -17 18 -41
38 -52 45 -11 7 -14 12 -7 12 7 1 31 -14 52 -31z m184 -26 c-4 -12 -10 -22
-15 -22 -10 0 -12 21 -3 45 9 24 24 4 18 -23z m716 -92 c147 -34 183 -47 173
-64 -4 -6 -8 -5 -11 3 -3 9 -7 10 -11 3 -4 -7 -46 -1 -126 18 -179 44 -195 49
-195 66 0 10 6 14 18 10 9 -2 78 -19 152 -36z m-1065 -38 c-7 -8 -37 10 -42
25 -3 7 6 13 19 15 16 2 24 -3 26 -15 2 -10 1 -22 -3 -25z m-400 -132 c142
-68 201 -161 132 -209 -17 -12 -19 -22 -15 -80 3 -36 2 -88 -1 -116 l-7 -50
-12 42 c-7 25 -26 53 -47 72 -31 27 -43 31 -91 31 -62 0 -117 -19 -133 -47 -9
-16 -10 -15 -11 9 0 20 -7 28 -31 37 -18 6 -33 11 -34 11 -1 0 -22 -16 -46
-35 -24 -19 -51 -35 -59 -35 -13 0 -13 2 -1 9 19 12 8 121 -19 176 -20 41 -68
74 -108 75 -9 1 27 16 81 34 53 18 105 40 115 48 21 19 77 38 108 38 26 0 32
14 12 24 -7 3 13 4 44 2 36 -3 81 -16 123 -36z m380 11 c-49 -45 -195 -159
-195 -153 0 20 78 94 134 127 59 35 79 43 61 26z m42 -20 c11 -17 -2 -32 -130
-144 -78 -69 -143 -124 -144 -123 -8 8 33 103 49 114 10 7 60 49 111 92 50 43
94 79 97 79 3 1 11 -8 17 -18z m-2 -188 l0 -128 118 -39 c127 -43 139 -56 96
-102 l-20 -22 -220 74 c-121 40 -227 74 -237 76 -25 5 -21 22 14 51 l32 27 57
-20 c87 -30 85 -32 85 63 l0 82 37 33 c21 17 38 32 38 32 0 0 0 -57 0 -127z
m-860 55 c30 -13 52 -60 66 -135 10 -51 9 -58 -7 -70 -23 -17 -81 -33 -119
-33 -49 0 -92 -16 -156 -59 -34 -23 -72 -41 -85 -41 -13 0 -24 -4 -24 -10 0
-5 11 -10 24 -10 23 0 24 -4 31 -78 8 -92 -4 -148 -45 -207 -26 -38 -28 -45
-25 -140 2 -78 7 -110 24 -147 34 -75 9 -104 -76 -89 -40 8 -54 6 -102 -17
-31 -15 -57 -30 -59 -34 -2 -5 -18 -8 -35 -8 -18 0 -48 -4 -67 -10 -38 -11
-73 -4 -67 13 2 6 21 16 43 24 l39 12 -40 -5 c-22 -3 -47 -11 -55 -17 -10 -8
-9 -4 2 9 10 11 40 26 66 33 33 8 61 24 83 47 19 20 55 51 81 70 29 21 51 47
57 67 6 19 10 118 8 243 -2 169 1 216 13 238 11 22 12 31 2 46 -31 50 2 141
62 172 22 11 60 38 84 59 24 21 76 51 115 68 74 32 108 34 162 9z m761 -73
c-1 -30 -5 -55 -10 -55 -5 0 -26 5 -48 12 l-39 11 43 44 c23 24 45 43 48 43 3
0 6 -25 6 -55z m-544 -116 c19 -10 20 -17 14 -92 -4 -45 -8 -82 -9 -84 -2 -1
-65 18 -142 42 -76 25 -141 43 -143 40 -8 -8 -3 -10 138 -57 126 -41 135 -46
138 -71 2 -15 0 -27 -3 -27 -16 0 -320 111 -332 121 -7 6 -13 19 -13 28 0 13
17 20 78 29 42 7 98 14 124 15 36 2 56 10 85 34 45 38 39 36 65 22z m242 -10
c13 -6 32 -26 41 -44 23 -42 15 -85 -29 -153 l-34 -53 3 -110 c3 -77 -1 -123
-11 -151 -10 -28 -10 -38 -2 -36 6 2 18 24 26 48 13 39 16 42 23 23 25 -68 29
-140 13 -224 -9 -46 -18 -128 -19 -181 -2 -53 -5 -100 -7 -105 -2 -4 -5 -35
-7 -67 -1 -33 -9 -72 -17 -87 -8 -16 -14 -38 -14 -51 0 -33 -10 -45 -59 -66
-36 -17 -48 -18 -81 -8 -48 14 -55 21 -39 39 9 9 29 12 65 9 30 -3 54 0 58 7
4 7 -8 10 -38 9 -24 0 -49 3 -56 7 -7 4 -23 -5 -40 -24 -32 -35 -42 -38 -60
-16 -10 12 -5 24 29 67 142 180 150 199 151 338 0 72 -4 92 -25 132 -18 34
-25 63 -25 103 0 30 4 55 9 55 12 0 51 -103 58 -152 3 -21 10 -38 16 -38 22 0
-19 152 -55 203 -11 15 -23 47 -26 70 -3 23 -14 55 -24 72 -10 16 -18 47 -18
67 0 25 -4 37 -12 35 -29 -5 -15 171 18 234 8 16 27 35 42 43 32 18 111 20
146 5z m-211 -350 c23 -66 31 -109 36 -204 5 -96 11 -128 29 -162 12 -23 22
-49 22 -56 0 -10 -68 12 -230 76 -220 87 -230 92 -230 118 0 20 7 30 30 39 27
11 40 8 147 -35 65 -26 124 -49 131 -52 9 -4 12 36 12 182 0 214 7 227 53 94z"/>
<path d="M424 2651 c-76 -46 -122 -154 -131 -306 -7 -111 13 -193 58 -238 17
-16 32 -27 35 -24 3 3 -4 15 -16 27 -42 42 -60 99 -60 193 0 171 50 302 130
335 22 10 40 20 40 25 0 13 -24 8 -56 -12z"/>
<path d="M575 2628 c-36 -19 -76 -62 -97 -102 -43 -83 -61 -265 -37 -361 11
-44 71 -126 84 -114 3 4 -5 19 -19 34 -47 50 -59 103 -53 222 8 171 46 261
124 298 41 20 55 35 31 35 -7 0 -22 -6 -33 -12z"/>
<path d="M994 1995 c-6 -36 1 -85 14 -85 4 0 7 27 7 60 0 66 -11 79 -21 25z"/>
<path d="M2423 2154 c-71 -47 -111 -129 -134 -279 -14 -90 -7 -180 19 -230 23
-46 59 -82 69 -71 5 4 0 12 -10 17 -53 30 -79 163 -58 296 22 141 71 232 146
267 19 9 35 19 35 21 0 12 -30 3 -67 -21z"/>
<path d="M2582 2143 c-84 -41 -141 -174 -150 -346 -4 -85 -1 -116 12 -151 18
-47 57 -96 77 -96 7 0 1 12 -14 28 -43 45 -59 96 -58 191 0 96 29 224 61 276
25 40 85 95 105 95 7 0 17 5 20 10 9 15 -16 12 -53 -7z"/>
<path d="M1966 2068 c-23 -32 -10 -35 20 -5 20 20 23 27 11 27 -9 0 -23 -10
-31 -22z"/>
<path d="M1433 2042 c-24 -2 -43 -7 -43 -13 0 -13 77 -11 85 2 9 14 7 14 -42
11z"/>
<path d="M1453 1994 c-9 -24 9 -47 45 -56 34 -9 48 -46 37 -97 -3 -17 -2 -38
4 -49 14 -26 -4 -42 -45 -42 -18 0 -36 -5 -39 -11 -4 -6 -20 -7 -38 -4 -31 7
-31 6 -12 -9 26 -20 39 -20 56 0 8 9 21 13 35 10 29 -8 54 2 54 20 0 8 10 14
22 14 l22 0 -23 16 c-20 14 -22 22 -17 54 9 55 -8 92 -54 118 -26 15 -37 27
-34 37 4 8 3 15 0 15 -4 0 -9 -7 -13 -16z"/>
<path d="M1377 1990 c-40 -7 -87 -44 -87 -68 0 -7 12 0 26 17 18 21 35 31 54
31 34 0 60 9 60 21 0 5 -3 8 -7 8 -5 -1 -25 -5 -46 -9z"/>
<path d="M1388 1933 c-17 -38 -15 -37 -53 -35 -39 3 -77 -30 -73 -64 1 -11 -5
-33 -15 -48 -10 -15 -16 -33 -13 -39 3 -8 5 -8 5 1 1 7 8 20 17 29 19 20 84
25 84 7 0 -15 6 -19 43 -28 35 -8 27 11 -10 25 -26 9 -27 21 -6 76 6 16 5 16
-10 4 -9 -7 -17 -22 -17 -32 0 -14 -7 -19 -30 -19 -25 0 -30 4 -30 24 0 30 16
43 61 48 28 3 40 -1 48 -14 6 -10 22 -18 36 -18 19 0 28 -8 39 -35 8 -19 20
-35 25 -35 32 0 -20 74 -55 80 -23 4 -30 11 -32 32 -2 15 2 36 8 48 7 14 7 20
0 20 -6 0 -16 -12 -22 -27z"/>
<path d="M1600 1886 c29 -18 60 -21 60 -6 0 6 -8 10 -17 10 -10 0 -29 3 -43 6
l-25 5 25 -15z"/>
<path d="M1981 1776 c-10 -42 -57 -96 -84 -96 -8 0 -8 -3 0 -11 25 -25 87 36
101 99 13 56 -3 64 -17 8z"/>
<path d="M1306 1768 c-18 -26 -21 -58 -5 -58 5 0 7 5 4 10 -4 6 1 22 10 36 21
32 13 43 -9 12z"/>
<path d="M1570 1740 c0 -5 11 -10 24 -10 14 0 28 5 31 10 4 6 -7 10 -24 10
-17 0 -31 -4 -31 -10z"/>
<path d="M1239 1656 c12 -13 43 -29 67 -35 51 -13 109 -65 126 -111 10 -29 28
-41 28 -20 0 47 -90 135 -155 151 -24 6 -50 17 -56 25 -6 8 -16 14 -22 14 -6
0 0 -11 12 -24z"/>
<path d="M1084 1642 c3 -6 42 -22 86 -37 43 -14 96 -38 116 -51 20 -14 39 -22
42 -19 12 12 -26 36 -108 69 -101 41 -146 54 -136 38z"/>
<path d="M1050 1612 c0 -12 15 -17 72 -27 20 -4 51 -18 69 -31 18 -13 44 -24
58 -24 26 0 26 0 -4 16 -16 8 -37 21 -45 29 -8 7 -35 17 -60 23 -25 6 -55 14
-67 17 -14 5 -23 3 -23 -3z"/>
<path d="M1020 1583 c1 -5 7 -19 15 -33 8 -14 14 -40 15 -57 0 -18 5 -33 10
-33 15 0 12 45 -6 90 -14 35 -35 55 -34 33z"/>
<path d="M1215 1468 c-22 -12 -34 -28 -60 -70 -25 -44 2 -33 30 11 17 28 32
41 52 43 15 2 27 8 26 13 -3 15 -25 16 -48 3z"/>
<path d="M567 1383 c-19 -35 -23 -113 -7 -113 6 0 10 18 10 41 0 22 5 49 11
60 6 11 8 25 6 32 -2 7 -11 -2 -20 -20z"/>
<path d="M653 1286 c-31 -24 -49 -32 -68 -29 -15 3 -25 1 -25 -6 0 -22 67 -12
103 17 19 15 43 32 53 39 18 11 18 12 -1 12 -11 1 -39 -14 -62 -33z"/>
<path d="M523 617 c4 -22 0 -30 -17 -37 -19 -8 -19 -9 7 -9 22 -1 27 3 27 22
0 12 -5 29 -11 37 -8 12 -10 9 -6 -13z"/>
<path d="M1200 1161 c0 -16 51 -71 66 -71 10 0 4 13 -18 40 -32 39 -48 49 -48
31z"/>
<path d="M1158 1143 c-21 -25 -31 -60 -18 -68 5 -3 10 1 10 10 0 9 9 30 21 46
22 31 12 40 -13 12z"/>
<path d="M1235 961 c-3 -6 -15 -11 -26 -11 -10 0 -19 -4 -19 -10 0 -16 50 -11
57 5 7 19 -2 31 -12 16z"/>
<path d="M1260 396 c0 -22 37 -86 51 -86 12 0 12 17 -1 25 -6 3 -19 23 -30 43
-13 25 -19 31 -20 18z"/>
</g>
</svg>
