<?xml version="1.0" standalone="no"?>
<!DOCTYPE svg PUBLIC "-//W3C//DTD SVG 20010904//EN"
 "http://www.w3.org/TR/2001/REC-SVG-20010904/DTD/svg10.dtd">
<svg version="1.0" xmlns="http://www.w3.org/2000/svg"
 width="300.000000pt" height="210.000000pt" viewBox="0 0 300.000000 210.000000"
 preserveAspectRatio="xMidYMid meet">
<metadata>
Created by potrace 1.10, written by Peter Selinger 2001-2011
</metadata>
<g transform="translate(0.000000,210.000000) scale(0.100000,-0.100000)"
fill="#000000" stroke="none">
<path d="M642 1930 c-23 -16 -48 -40 -57 -54 -9 -13 -28 -26 -44 -29 -41 -8
-88 -52 -116 -107 -17 -33 -33 -51 -53 -58 -57 -20 -101 -87 -123 -190 l-11
-52 -58 0 c-49 0 -61 -4 -70 -20 -17 -33 -23 -103 -11 -148 l12 -42 64 0 c57
0 65 -2 65 -19 0 -10 9 -49 20 -85 23 -72 82 -146 117 -146 14 0 27 -15 43
-51 27 -57 80 -109 111 -109 12 0 41 -23 71 -55 82 -90 163 -96 243 -18 70 69
128 231 141 394 6 74 8 79 30 79 19 0 25 -8 34 -42 6 -24 22 -70 35 -104 47
-120 55 -201 56 -553 1 -179 4 -337 8 -351 4 -14 11 130 15 320 8 374 5 414
-49 575 -20 61 -21 73 -10 96 17 32 54 57 98 66 29 6 31 5 18 -10 -8 -10 -9
-17 -3 -17 6 0 22 14 36 32 14 18 29 29 33 24 7 -6 -52 -67 -111 -114 -30 -24
-16 -30 24 -10 22 11 54 37 70 56 41 50 38 33 -5 -28 -19 -28 -33 -50 -30 -50
2 0 31 27 63 60 63 65 88 77 72 34 -12 -32 -13 -47 -1 -40 5 3 12 18 15 32 8
29 36 77 43 71 2 -2 -8 -28 -22 -58 -26 -57 -31 -79 -16 -79 5 0 12 15 15 33
9 49 31 73 91 101 30 14 55 30 55 35 0 6 7 11 15 11 8 0 15 -6 15 -14 0 -13
61 -66 75 -66 4 0 -9 18 -29 40 -58 64 -40 93 32 50 43 -26 53 -25 22 3 -14
12 -21 19 -16 15 14 -11 28 -10 21 1 -3 5 -1 13 5 16 17 11 58 -22 79 -63 13
-23 20 -30 21 -19 0 10 -8 30 -17 45 -14 22 -15 25 -2 15 13 -10 23 -9 53 7
l38 19 -49 4 -48 3 53 2 52 2 -20 20 c-19 19 -19 22 -5 50 18 34 18 40 5 40
-5 0 -10 -7 -10 -16 0 -18 -53 -74 -71 -74 -6 0 0 9 13 20 14 11 28 32 31 47
4 15 9 38 13 51 3 12 2 22 -3 22 -5 0 -14 -19 -20 -42 -7 -24 -25 -56 -42 -72
-41 -39 -105 -40 -181 -2 -28 14 -53 26 -54 26 -2 0 0 -19 4 -42 12 -65 -17
-107 -76 -108 -42 0 -72 34 -84 98 -5 29 -14 60 -18 70 -5 9 -12 46 -15 81 -3
35 -10 68 -16 74 -22 22 -10 36 46 57 67 25 105 20 132 -18 23 -33 35 -72 23
-72 -5 0 -12 13 -15 30 -12 58 -90 77 -143 34 -19 -15 -19 -15 1 -8 11 4 34 9
52 12 25 3 32 0 38 -17 3 -12 14 -21 23 -22 28 -1 -24 -18 -63 -21 -19 -1 -35
-6 -35 -11 0 -6 22 -7 53 -3 41 5 48 4 33 -5 -11 -7 -36 -12 -58 -12 -46 0
-48 -5 -9 -18 19 -7 33 -21 40 -41 15 -42 14 -131 -1 -147 -11 -11 -7 -13 22
-7 22 4 31 3 25 -3 -6 -5 -28 -11 -50 -13 -39 -4 -40 -4 -11 -12 16 -5 40 -5
55 0 23 9 26 16 31 72 4 52 2 66 -12 79 -11 9 -18 29 -17 47 l1 31 9 -32 c11
-37 55 -73 119 -96 68 -25 104 -22 142 13 l33 29 -33 1 c-20 0 -35 -6 -38 -15
-4 -8 -10 -15 -15 -15 -5 0 0 18 11 40 23 45 24 50 10 50 -5 0 -10 -9 -10 -19
0 -23 -36 -51 -64 -51 -19 0 -19 1 -1 20 23 25 30 83 13 98 -7 6 -29 12 -48
15 -22 2 -12 4 28 5 34 1 79 9 100 18 23 9 50 13 70 9 38 -7 54 -31 130 -187
79 -162 80 -159 -74 -322 -70 -75 -141 -142 -161 -151 -28 -14 -52 -16 -104
-12 -61 5 -117 22 -107 33 3 2 20 -1 39 -6 18 -6 63 -10 99 -9 57 0 62 2 40
12 -24 11 -23 11 17 15 44 3 110 52 153 112 20 28 20 28 0 23 -11 -3 -20 0
-20 6 0 6 12 11 26 11 19 0 42 15 75 49 46 45 49 52 49 97 -1 30 -9 63 -21 84
l-20 35 6 -37 c4 -25 1 -41 -10 -51 -11 -12 -12 -17 -2 -21 6 -3 -19 -4 -56
-2 -66 4 -68 4 -46 -12 13 -10 35 -22 49 -29 l25 -11 -28 1 c-16 1 -33 7 -39
14 -6 7 -15 13 -21 13 -6 0 5 -16 24 -37 22 -23 27 -34 16 -30 -10 4 -28 7
-39 7 -11 0 -33 14 -50 30 -17 17 -32 29 -34 27 -8 -8 39 -58 68 -73 16 -8 27
-18 24 -21 -3 -3 -12 0 -21 7 -12 10 -18 10 -31 -1 -15 -12 -21 -9 -50 25 -19
22 -34 35 -34 29 0 -17 41 -64 74 -85 30 -19 30 -20 5 -14 -15 3 -34 0 -45 -9
-27 -20 -57 -18 -88 6 -14 11 -26 16 -26 11 0 -12 28 -36 65 -55 17 -9 24 -16
17 -17 -38 -1 -106 60 -127 115 -4 12 -9 15 -12 8 -5 -14 22 -70 50 -100 l20
-23 -36 -15 c-20 -8 -43 -15 -50 -15 -22 0 -67 40 -79 69 -6 14 -12 21 -15 14
-5 -14 20 -65 41 -82 9 -8 16 -18 16 -23 0 -16 -39 12 -55 40 -9 15 -14 19
-11 10 3 -11 0 -18 -7 -18 -19 0 -37 21 -37 42 0 10 -4 18 -10 18 -24 0 -5
-56 33 -97 11 -13 18 -26 14 -29 -3 -4 -19 8 -35 25 -25 28 -30 30 -42 16 -7
-8 -21 -15 -31 -15 -13 0 -17 -5 -13 -17 5 -15 3 -15 -11 2 -16 19 -16 51 0
88 4 10 3 17 -3 17 -11 0 -32 -53 -32 -80 0 -10 7 -23 15 -30 8 -7 15 -17 15
-23 0 -22 -40 28 -41 52 -1 18 -4 13 -8 -14 -5 -31 -11 -40 -31 -45 -22 -5
-23 -7 -7 -13 26 -10 135 -8 182 3 31 7 59 5 120 -10 44 -11 89 -21 100 -23
11 -3 -1 -5 -26 -6 -25 0 -67 6 -92 15 -28 9 -63 14 -85 11 -20 -3 -62 -9 -92
-13 -82 -11 -34 -23 70 -17 59 3 99 -1 130 -11 l45 -15 -65 -1 -65 -2 55 -12
c60 -13 109 -36 129 -60 7 -8 18 -59 26 -113 8 -54 19 -122 25 -151 14 -62 6
-83 -9 -26 -26 103 -35 128 -38 113 -8 -33 73 -379 93 -398 3 -3 3 19 -1 49
-4 30 -5 53 -2 50 3 -3 19 -41 37 -85 33 -83 56 -121 46 -75 -37 165 -57 251
-62 263 -3 8 -1 17 4 21 5 3 25 -49 46 -116 20 -66 39 -118 42 -115 3 3 -15
81 -40 174 -65 244 -78 321 -74 429 2 61 8 97 17 106 11 11 12 7 5 -22 -13
-59 -6 -171 21 -306 42 -216 106 -434 127 -434 6 0 7 8 3 17 -15 40 -88 313
-110 417 -37 173 -42 253 -17 308 20 46 111 157 208 255 l51 52 6 -82 c16
-223 106 -405 216 -438 34 -10 47 -9 85 5 42 16 116 84 116 106 0 6 12 10 27
10 39 0 88 43 118 105 18 36 33 55 45 55 49 0 107 89 131 199 l11 51 58 0 c51
0 61 3 71 22 15 27 15 123 0 160 -9 25 -15 27 -73 30 l-63 3 -7 42 c-16 96
-75 186 -128 198 -19 4 -30 16 -39 41 -17 48 -81 113 -119 120 -19 4 -42 21
-60 44 -36 44 -86 70 -137 70 -71 0 -136 -56 -184 -160 -33 -70 -71 -240 -71
-314 0 -42 -2 -46 -24 -46 -22 0 -23 2 -15 43 24 125 -1 208 -77 257 -58 36
-130 42 -158 11 -16 -18 -18 -18 -54 0 -68 35 -151 21 -191 -34 -8 -11 -21
-17 -32 -14 -26 7 -99 -11 -129 -31 -16 -10 -46 -16 -81 -17 -34 0 -63 -6 -74
-15 -19 -16 -116 -154 -127 -182 -4 -10 -17 -18 -28 -18 -17 0 -20 6 -20 41 0
55 -36 226 -61 295 -61 161 -185 228 -287 154z m150 -6 c53 -27 114 -134 148
-256 21 -78 41 -228 30 -228 -4 0 -10 31 -13 70 -16 195 -110 386 -205 415
-36 11 -89 -13 -127 -57 -34 -40 -41 -63 -11 -39 8 7 17 8 20 3 7 -12 -42
-153 -60 -171 -11 -13 -15 -11 -23 10 l-9 24 -6 -25 c-12 -46 -36 -225 -35
-255 1 -16 7 2 14 40 17 94 34 155 43 155 4 0 7 -111 8 -247 0 -191 4 -266 17
-328 9 -44 17 -91 17 -105 0 -23 -1 -23 -17 -8 -9 9 -27 47 -40 85 -22 61 -24
64 -18 24 10 -76 64 -190 115 -243 40 -41 52 -48 86 -48 62 0 104 36 153 130
37 71 71 192 78 280 3 39 9 70 13 70 19 0 -22 -221 -57 -310 -52 -130 -111
-190 -189 -190 -80 0 -164 108 -204 265 -46 181 -44 530 5 699 31 106 54 154
102 206 52 59 98 68 165 34z m1546 -11 c47 -35 81 -94 114 -197 37 -115 47
-196 48 -386 0 -252 -31 -405 -105 -515 -51 -76 -110 -110 -167 -95 -43 12
-97 69 -134 141 -32 65 -70 211 -78 304 -7 83 5 48 23 -68 25 -156 89 -296
156 -337 97 -60 188 18 254 219 28 84 26 114 -2 35 -24 -67 -51 -112 -62 -103
-3 4 1 41 9 82 26 123 38 302 31 467 -5 135 -4 153 8 137 8 -9 20 -45 26 -80
7 -34 16 -78 21 -97 13 -56 2 69 -17 180 -13 80 -17 91 -26 72 -6 -12 -15 -21
-20 -19 -13 4 -72 175 -64 184 4 3 16 -2 27 -12 30 -27 24 -9 -11 35 -103 127
-220 68 -293 -148 -14 -39 -30 -106 -37 -149 -16 -107 -30 -145 -22 -63 8 90
46 237 77 299 70 138 157 179 244 114z m-1544 -30 c3 -4 -8 -12 -26 -17 -25
-8 -40 -24 -61 -62 -129 -241 -104 -901 39 -1013 l26 -20 -25 -6 c-33 -9 -91
19 -113 53 l-18 27 33 -28 c18 -15 41 -27 52 -27 19 0 19 0 -1 28 -109 148
-126 690 -29 947 31 83 95 145 123 118z m1454 -9 c30 -21 76 -114 95 -194 67
-271 41 -708 -49 -852 -24 -37 -24 -38 -4 -38 12 0 32 11 46 25 14 14 28 25
31 25 21 0 -66 -71 -93 -76 -49 -9 -55 2 -20 39 69 73 107 258 107 517 0 318
-70 564 -157 547 -25 -4 -34 7 -11 16 21 9 32 7 55 -9z m18 -95 c37 -75 56
-184 63 -354 7 -185 -2 -316 -29 -433 -39 -165 -94 -224 -140 -149 -26 42 -25
47 5 47 32 0 75 41 75 72 0 21 -2 20 -34 -11 -29 -28 -37 -31 -55 -22 -39 21
-75 119 -95 259 -5 33 -3 42 8 42 10 0 17 -14 21 -37 30 -185 76 -268 123
-221 17 17 15 25 -7 31 -30 7 -49 46 -63 125 -11 67 -11 73 7 86 25 18 30 5
16 -36 -9 -25 -8 -36 4 -55 20 -29 46 -29 74 1 33 36 51 108 51 211 0 100 -16
164 -52 202 -24 26 -66 30 -74 8 -4 -8 -10 -15 -15 -15 -16 0 -10 50 11 90 16
31 26 40 47 40 25 0 26 0 8 20 -10 11 -26 20 -37 20 -35 0 -77 -98 -93 -212
-4 -32 -11 -48 -21 -48 -8 0 -14 2 -14 4 0 26 34 187 46 214 19 46 52 82 75
82 9 0 29 -13 42 -30 30 -35 37 -37 37 -11 0 25 -46 69 -81 79 l-29 7 20 33
c19 31 21 32 52 19 22 -9 39 -27 54 -58z m-1432 39 c21 -30 20 -47 -1 -43 -35
6 -92 -43 -93 -79 0 -17 5 -15 34 13 19 19 42 31 52 29 42 -8 88 -115 100
-234 6 -53 4 -64 -8 -64 -11 0 -17 16 -21 63 -6 65 -28 136 -53 174 -16 26
-55 31 -73 10 -13 -16 -5 -27 20 -27 26 0 55 -63 63 -135 6 -54 5 -61 -13 -73
-23 -14 -26 -6 -11 34 14 35 4 63 -25 70 -36 9 -60 -10 -85 -68 -19 -43 -23
-70 -23 -148 0 -110 13 -167 49 -210 31 -36 56 -38 76 -7 11 16 12 30 5 55
-11 37 -7 45 17 36 15 -6 17 -15 11 -67 -9 -76 -27 -120 -59 -143 -32 -24 -21
-50 17 -40 32 8 62 77 80 182 8 47 19 80 27 82 17 6 8 -93 -16 -179 -15 -55
-65 -129 -85 -129 -6 0 -24 13 -40 29 -31 32 -42 29 -28 -6 8 -23 56 -53 84
-53 20 0 19 -6 -5 -45 -30 -48 -45 -49 -80 -7 -55 66 -86 206 -96 423 -10 226
15 417 67 521 31 60 84 77 113 36z m-284 -2 c0 -2 -18 -15 -40 -30 -40 -26
-55 -51 -24 -39 19 7 18 2 -19 -92 -24 -62 -46 -83 -48 -43 0 13 -9 -13 -20
-57 -10 -44 -18 -98 -17 -120 1 -40 1 -40 5 -5 6 53 33 131 44 124 5 -3 9 -86
9 -184 0 -156 9 -283 25 -357 10 -42 -16 -24 -41 30 -19 39 -24 45 -21 22 9
-50 46 -127 58 -120 11 8 69 -42 69 -59 0 -5 -16 5 -35 24 -19 19 -35 29 -35
23 0 -6 21 -30 46 -52 46 -40 46 -56 0 -26 -91 60 -155 304 -143 540 10 178
67 352 133 404 23 18 54 28 54 17z m1955 -30 c45 -49 79 -134 66 -169 -6 -15
-15 -27 -19 -27 -8 0 -62 136 -62 155 0 4 8 4 18 1 9 -3 -3 12 -27 34 -31 28
-38 40 -26 40 10 0 32 -15 50 -34z m-731 -41 c-35 -16 -40 -23 -49 -89 -9 -57
-21 -59 -28 -5 -3 23 -14 51 -25 62 -26 25 -100 34 -126 14 -18 -13 -17 -14
12 -9 38 5 82 -4 82 -18 0 -6 -11 -10 -24 -10 -13 0 -33 -3 -43 -7 -13 -6 -3
-9 32 -13 36 -4 50 -9 50 -20 0 -12 -13 -15 -55 -15 l-56 0 4 -30 c3 -23 1
-27 -7 -15 -6 8 -11 22 -11 31 0 9 -10 29 -22 44 l-22 28 34 30 c30 26 38 29
86 25 58 -5 99 -32 107 -72 3 -15 5 -13 6 9 2 38 10 52 41 64 38 15 49 11 14
-4z m92 -16 c53 -32 87 -99 86 -167 0 -31 -6 -68 -11 -82 -9 -21 -10 -18 -5
20 4 35 3 42 -6 30 -10 -12 -11 -11 -5 5 14 37 16 70 7 95 -9 24 -10 24 -17
-13 -12 -60 -24 -53 -18 10 5 52 4 56 -9 39 -19 -24 -119 -31 -110 -8 3 10 16
13 45 9 26 -4 36 -2 29 5 -5 5 -32 10 -58 10 -27 0 -43 3 -36 5 6 3 12 11 12
18 0 25 39 28 76 6 20 -12 34 -16 32 -10 -2 7 -20 20 -38 31 -19 10 -29 18
-21 18 7 0 29 -9 47 -21z m-1476 -66 c0 -5 -16 -19 -35 -32 -35 -24 -48 -45
-20 -35 19 8 19 -1 -1 -59 -17 -49 -23 -54 -41 -36 -8 8 -13 -1 -18 -37 -3
-27 -8 -59 -11 -71 -2 -13 0 -23 6 -23 5 0 10 12 10 28 1 15 7 38 15 52 12 22
14 23 20 7 4 -10 5 -35 1 -57 -6 -36 6 -191 20 -267 8 -45 -11 -42 -35 5 -11
20 -20 31 -21 24 0 -26 50 -111 82 -136 22 -17 28 -26 17 -26 -31 0 -79 62
-100 130 -26 80 -36 253 -20 330 18 85 61 170 95 191 35 21 36 22 36 12z
m2268 -36 c13 -14 35 -56 49 -93 60 -168 30 -435 -59 -509 -44 -37 -55 -30
-14 9 20 18 45 55 57 80 24 56 19 75 -6 22 -23 -47 -39 -46 -31 2 3 20 9 103
12 185 4 81 10 147 14 147 10 0 30 -56 30 -83 0 -11 3 -18 6 -14 4 3 3 36 -1
72 -6 57 -9 64 -22 54 -17 -15 -27 -3 -43 51 -14 48 -13 53 8 46 9 -3 0 9 -20
28 -21 18 -38 36 -38 40 0 11 33 -10 58 -37z m-1372 5 c14 -9 34 -47 34 -64
-1 -7 -7 1 -14 18 -16 36 -35 46 -76 37 -43 -8 -48 -23 -6 -16 18 3 42 0 52
-6 16 -9 14 -10 -17 -11 -19 0 -44 -7 -55 -16 -19 -15 -19 -16 1 -9 54 20 65
18 65 -8 0 -35 -28 -49 -71 -37 -50 15 -48 3 4 -20 54 -24 71 -49 65 -97 -4
-32 -2 -34 19 -30 13 2 23 0 23 -5 0 -6 -22 -8 -49 -6 -53 3 -58 -4 -14 -19
17 -6 41 -6 61 -1 27 7 32 13 32 37 0 16 -7 45 -16 66 -8 20 -14 47 -12 59 5
26 39 -83 40 -127 2 -59 -69 -76 -135 -32 -31 22 -37 32 -37 61 0 35 -26 111
-35 102 -3 -2 -1 -19 4 -36 l10 -32 -50 0 c-53 0 -54 1 -38 32 l11 21 19 -24
19 -24 -10 28 c-7 21 -6 37 6 65 14 32 17 34 23 17 7 -16 9 -14 14 12 9 44 43
73 86 73 20 0 41 -4 47 -8z m1324 -92 c7 -36 13 -126 13 -200 0 -227 -44 -392
-124 -465 -22 -19 -44 -35 -50 -35 -7 0 8 18 33 39 44 39 90 122 103 186 4 21
-2 15 -19 -21 -22 -47 -46 -77 -46 -57 0 4 7 58 15 118 8 61 15 188 15 284 0
150 2 172 14 161 13 -10 29 -66 40 -140 2 -18 4 -15 4 10 1 19 -5 66 -13 105
-8 38 -15 79 -15 90 1 36 17 -5 30 -75z m-991 -1 c16 -37 5 -52 -39 -52 -33 0
-70 27 -70 53 0 25 9 30 54 30 36 0 43 -4 55 -31z m-819 -37 c-43 -60 -49
-251 -9 -328 23 -46 23 -44 3 -44 -8 0 -24 20 -37 48 -18 39 -21 66 -21 157 0
94 3 116 22 152 21 40 39 55 54 46 4 -2 -1 -16 -12 -31z m1399 28 c43 -23 68
-152 51 -268 -12 -89 -33 -132 -62 -132 -19 0 -20 1 -6 18 29 32 41 96 37 203
-4 86 -8 111 -27 142 -30 51 -29 57 7 37z m-39 -58 c0 -7 -8 -12 -17 -10 -9 2
-16 6 -15 11 1 4 2 17 2 30 1 21 1 22 15 3 8 -11 15 -26 15 -34z m-1925 -62
c-3 -5 -28 -10 -56 -10 -29 0 -49 -4 -49 -11 0 -7 18 -10 50 -7 42 2 50 0 50
-14 0 -15 -10 -18 -57 -20 l-58 -2 58 -3 c40 -3 57 -8 54 -16 -3 -8 -22 -11
-51 -10 -46 3 -47 2 -44 -25 3 -25 7 -27 56 -30 62 -4 61 -22 -1 -22 -64 0
-72 10 -72 82 0 92 4 98 70 98 35 0 54 -4 50 -10z m780 0 c-66 -4 -133 -8
-148 -9 -16 0 -26 -5 -23 -9 2 -4 73 -9 157 -10 85 -1 158 -7 163 -12 7 -7 -9
-10 -44 -11 -30 -1 -107 -5 -170 -9 -94 -5 -102 -7 -45 -8 119 -3 265 -15 265
-21 0 -3 -73 -6 -163 -6 l-162 0 0 -25 0 -25 203 -3 c119 -1 202 -6 202 -12 0
-6 -81 -9 -205 -9 -190 0 -206 2 -215 19 -13 24 -13 101 0 134 l10 26 147 -2
148 -2 -120 -6z m545 -13 c0 -13 5 -28 12 -35 7 -7 8 -12 2 -12 -17 0 -34 23
-34 47 0 13 5 23 10 23 6 0 10 -10 10 -23z m603 -29 c5 -27 5 -64 0 -85 l-9
-38 -68 -3 c-39 -2 -74 2 -80 8 -7 7 11 10 61 10 55 0 72 3 77 16 11 30 6 33
-66 36 -45 2 -73 8 -75 15 -3 9 18 13 74 16 l78 3 -82 2 c-46 1 -83 4 -83 6 0
2 -3 12 -7 22 -6 15 1 16 75 12 45 -3 82 -1 82 4 0 4 -38 8 -84 8 -48 0 -88 5
-91 10 -5 7 26 10 92 8 l98 -3 8 -47z m704 25 c11 -47 9 -119 -6 -136 -9 -12
-29 -17 -62 -17 -66 0 -63 18 4 22 47 3 52 5 55 28 3 25 1 26 -45 25 -65 0
-66 19 -1 24 l53 5 -55 5 c-39 4 -55 10 -55 21 0 11 11 14 48 11 29 -1 47 2
47 8 0 6 -21 11 -50 11 -27 0 -50 5 -50 10 0 6 25 10 55 10 51 0 55 -2 62 -27z
m-1490 -110 c6 -16 -34 -35 -57 -28 -22 7 -27 31 -7 39 20 8 60 2 64 -11z
m423 -172 c0 -16 -79 -80 -107 -87 -16 -4 -37 -13 -48 -20 -11 -8 -35 -14 -55
-14 l-35 0 30 25 c17 14 41 27 55 31 30 7 53 17 105 49 43 27 55 30 55 16z
m695 -201 c-16 -16 -31 -28 -34 -25 -2 3 8 19 24 35 16 16 31 28 34 25 2 -3
-8 -19 -24 -35z m-845 -50 c0 -50 -14 -52 -49 -7 -16 21 0 47 30 47 15 0 19
-8 19 -40z m50 -375 c0 -24 -15 -42 -23 -28 -3 5 -3 20 0 35 6 33 23 27 23 -7z"/>
<path d="M1783 1561 c0 -22 5 -37 9 -35 11 7 10 62 -1 69 -6 3 -9 -11 -8 -34z"/>
<path d="M1231 748 c1 -73 5 -144 9 -158 5 -15 8 38 9 133 1 98 -3 157 -9 157
-6 0 -10 -50 -9 -132z"/>
<path d="M1350 734 c0 -39 5 -109 11 -155 14 -103 33 -134 25 -39 -3 36 -8
104 -11 151 -8 110 -25 140 -25 43z"/>
<path d="M1446 724 c-10 -124 -7 -272 8 -373 18 -119 38 -146 31 -41 -3 41
-10 167 -15 279 -5 112 -11 205 -13 208 -2 2 -7 -31 -11 -73z"/>
<path d="M1495 510 c3 -63 9 -128 14 -145 8 -22 9 -3 4 65 -10 155 -23 214
-18 80z"/>
</g>
</svg>
