<?xml version="1.0" standalone="no"?>
<!DOCTYPE svg PUBLIC "-//W3C//DTD SVG 20010904//EN"
 "http://www.w3.org/TR/2001/REC-SVG-20010904/DTD/svg10.dtd">
<svg version="1.0" xmlns="http://www.w3.org/2000/svg"
 width="300.000000pt" height="240.000000pt" viewBox="0 0 300.000000 240.000000"
 preserveAspectRatio="xMidYMid meet">
<metadata>
Created by potrace 1.10, written by Peter Selinger 2001-2011
</metadata>
<g transform="translate(0.000000,240.000000) scale(0.100000,-0.100000)"
fill="#000000" stroke="none">
<path d="M1448 2354 c-23 -10 -42 -27 -52 -49 -24 -49 -21 -59 15 -51 17 3 39
6 48 7 12 0 11 2 -4 9 -18 8 -18 9 6 9 31 1 129 -27 129 -37 0 -4 -45 -7 -99
-7 -55 0 -102 -3 -106 -7 -13 -13 -11 -121 3 -125 15 -6 17 -143 2 -143 -5 0
-10 14 -10 30 0 17 -5 30 -11 30 -13 0 -79 -39 -79 -46 0 -3 15 -10 33 -17 87
-31 111 -4 103 116 -3 48 -2 76 4 72 5 -3 19 -1 31 5 15 9 20 19 16 36 -3 20
0 24 20 24 20 0 23 -4 18 -21 -7 -21 -6 -21 16 -5 26 18 59 21 59 7 0 -14 -41
-41 -52 -35 -4 3 -8 0 -8 -6 0 -8 11 -9 31 -5 31 7 32 7 23 -21 -12 -41 -9
-141 6 -159 24 -29 73 -45 136 -45 87 0 112 -22 124 -109 5 -35 11 -65 13 -68
10 -9 26 94 19 118 -23 78 -87 105 -201 84 -32 -6 -42 -5 -37 3 4 7 15 12 24
12 9 0 23 4 31 9 11 7 7 14 -20 30 -46 29 -59 27 -59 -9 0 -16 -4 -30 -10 -30
-12 0 -1 130 12 147 13 16 0 158 -18 201 -9 22 -25 38 -48 47 -44 18 -61 18
-108 -1z m98 -45 c3 -5 -19 -9 -48 -9 -46 1 -51 2 -36 14 18 13 74 10 84 -5z
m-92 -115 c20 -8 21 -34 2 -34 -25 0 -46 12 -46 26 0 15 18 18 44 8z"/>
<path d="M2562 2189 c-11 -30 -30 -103 -42 -164 -12 -60 -23 -111 -24 -112 -1
-2 -39 4 -85 13 -85 16 -97 15 -88 -9 3 -9 36 -19 86 -27 l81 -14 -7 -141 c-4
-95 -2 -152 6 -176 11 -33 15 -35 99 -57 48 -12 103 -24 122 -26 19 -3 52 -8
72 -11 35 -5 38 -4 58 35 18 36 49 155 65 252 5 32 9 36 33 35 21 -2 28 3 30
21 3 17 -1 22 -20 22 l-24 0 1 148 c0 151 -9 192 -41 192 -11 0 -13 -6 -7 -27
15 -53 6 -265 -16 -383 -11 -63 -23 -133 -27 -155 -3 -22 -13 -53 -21 -69 -15
-29 -15 -29 -86 -23 -88 8 -178 33 -194 55 -8 9 -13 47 -13 94 0 67 3 81 22
100 l23 23 6 -30 c12 -64 30 69 36 260 4 157 2 193 -10 209 -13 18 -16 16 -35
-35z m18 -165 c0 -27 -4 -43 -10 -39 -11 7 -13 45 -4 69 10 26 14 18 14 -30z
m-17 -117 c-2 -58 -21 -119 -36 -114 -16 5 -22 38 -6 35 14 -3 27 32 28 81 1
30 -1 32 -16 20 -15 -13 -15 -12 -4 9 19 36 36 21 34 -31z"/>
<path d="M351 2221 c-8 -5 -15 -15 -16 -23 -13 -89 -14 -174 -5 -273 11 -122
40 -270 47 -247 3 6 11 12 18 12 7 0 12 8 10 18 -38 187 -52 409 -32 490 9 33
3 39 -22 23z"/>
<path d="M395 2213 c-23 -60 -14 -291 17 -453 l13 -65 5 43 5 43 23 -21 c19
-18 22 -31 22 -98 0 -51 -5 -85 -14 -98 -17 -24 -136 -55 -218 -58 -48 -1 -53
1 -66 27 -28 58 -65 306 -66 447 0 74 2 147 7 163 8 30 0 34 -29 13 -17 -13
-19 -28 -19 -170 0 -148 -1 -155 -20 -158 -14 -2 -20 -11 -20 -28 0 -21 4 -25
28 -22 23 3 27 0 27 -20 0 -36 47 -221 67 -263 l18 -37 69 7 c89 9 246 49 257
66 15 25 21 109 14 216 -4 59 -9 111 -11 115 -5 9 18 15 86 23 64 8 90 20 90
40 0 16 -11 15 -123 -10 -65 -14 -62 -17 -72 59 -4 28 -15 84 -26 125 -31 124
-48 154 -64 114z m43 -206 c-2 -11 -9 -22 -15 -25 -10 -3 -13 12 -12 55 l1 58
14 -34 c8 -18 14 -43 12 -54z m32 -79 c0 -5 -4 -6 -10 -3 -6 4 -10 -7 -10 -27
0 -47 10 -76 26 -80 10 -2 11 -7 4 -18 -16 -24 -38 12 -46 76 -8 66 -1 92 21
74 8 -7 15 -17 15 -22z"/>
<path d="M2621 2208 c26 -47 10 -331 -28 -486 -4 -16 -1 -22 8 -20 8 2 13 -3
11 -9 -1 -7 2 -13 7 -13 23 0 51 211 50 373 -1 145 -7 171 -38 175 -21 3 -22
2 -10 -20z"/>
<path d="M298 2213 c-41 -10 -50 -208 -19 -416 19 -127 31 -168 31 -111 l0 29
20 -25 c24 -31 25 -16 5 60 -26 96 -40 297 -27 386 6 43 10 79 9 80 -1 0 -10
-1 -19 -3z"/>
<path d="M2680 2213 c0 -5 5 -42 10 -83 12 -87 -1 -250 -29 -377 -10 -45 -17
-83 -14 -83 3 0 13 10 24 23 l18 22 2 -30 c2 -45 36 166 44 275 8 103 -7 239
-28 252 -15 10 -27 10 -27 1z"/>
<path d="M2747 2162 c17 -100 -3 -395 -33 -488 -4 -14 -1 -13 15 6 13 16 21
20 21 11 0 -34 12 3 30 98 14 71 20 139 19 224 -2 150 -7 177 -37 188 -23 9
-23 8 -15 -39z"/>
<path d="M223 2192 c-19 -12 -36 -149 -29 -237 8 -93 33 -245 46 -277 9 -23 9
-23 10 2 l1 25 15 -25 15 -25 -5 31 c-28 171 -38 281 -33 374 2 58 8 113 12
123 8 18 -10 23 -32 9z"/>
<path d="M164 2180 c-16 -6 -23 -20 -28 -56 -9 -69 -7 -170 5 -283 11 -99 36
-216 38 -173 1 12 6 22 11 22 6 0 15 -10 20 -22 13 -33 12 -25 -10 102 -29
163 -35 277 -21 350 7 34 11 63 9 65 -2 1 -12 -1 -24 -5z"/>
<path d="M2811 2163 c24 -59 6 -343 -31 -480 -10 -39 -4 -44 10 -8 11 29 29
33 31 8 3 -41 29 102 39 212 11 119 6 244 -11 278 -6 9 -18 17 -29 17 -17 0
-18 -3 -9 -27z"/>
<path d="M1341 2101 c-13 -8 -28 -81 -16 -81 5 0 45 75 45 85 0 8 -13 6 -29
-4z"/>
<path d="M1040 1990 c-91 -10 -171 -19 -177 -19 -8 -1 -13 -15 -13 -35 0 -18
-6 -38 -13 -44 -19 -16 -67 -26 -67 -14 0 6 14 13 30 17 28 6 30 10 30 52 l0
45 -32 -7 c-102 -23 -139 -98 -77 -156 17 -16 34 -29 38 -29 4 0 12 -15 19
-33 28 -79 111 -158 241 -232 l64 -36 44 18 c25 10 50 29 58 43 l13 25 12 -30
c6 -16 20 -40 31 -51 11 -12 28 -48 38 -80 15 -54 22 -62 78 -100 68 -46 134
-75 113 -49 -7 8 -39 31 -71 50 -52 32 -60 42 -79 93 -11 31 -27 69 -35 84
-21 37 -20 39 25 32 54 -9 100 2 135 31 l30 25 -44 -15 c-90 -31 -162 -13
-200 48 -44 71 -80 84 -45 16 8 -17 14 -32 12 -33 -38 -30 -88 -56 -109 -56
-60 0 -225 129 -265 207 -10 21 -36 57 -56 80 -44 49 -47 66 -16 87 28 20 35
13 18 -18 -16 -32 -7 -56 23 -56 15 0 36 -15 61 -45 25 -31 58 -55 102 -75 35
-16 64 -33 64 -37 0 -5 9 -19 20 -31 30 -31 60 -14 60 33 0 19 4 35 8 35 12 0
-1 71 -13 72 -5 1 -18 -13 -29 -31 -17 -29 -17 -33 -2 -50 18 -19 22 -61 6
-61 -5 0 -10 9 -10 21 0 29 -54 77 -100 89 -38 10 -100 63 -100 86 0 35 14 74
29 78 9 3 97 13 196 22 147 14 184 20 200 35 19 19 19 19 -30 18 -28 -1 -124
-9 -215 -19z"/>
<path d="M1713 1992 c14 -16 37 -21 120 -26 56 -4 147 -13 201 -19 94 -11 99
-13 102 -37 1 -14 3 -29 4 -35 8 -37 -39 -92 -84 -101 -46 -8 -106 -59 -106
-90 0 -13 -4 -24 -10 -24 -13 0 -13 26 2 67 11 30 10 36 -10 56 -19 19 -24 20
-32 7 -13 -20 -13 -57 0 -65 6 -4 8 -10 5 -15 -10 -16 14 -60 33 -60 10 0 28
13 40 29 12 17 51 44 87 61 48 23 73 42 92 71 19 29 32 39 48 37 12 -1 31 4
41 12 10 8 5 -1 -12 -20 -18 -19 -44 -59 -58 -87 -29 -58 -111 -131 -206 -182
-52 -28 -57 -29 -85 -15 -17 8 -41 23 -54 33 -24 18 -24 19 -8 60 22 54 6 52
-32 -3 -47 -68 -75 -86 -136 -86 -29 0 -69 7 -90 16 -47 19 -36 0 15 -26 43
-22 103 -26 145 -10 15 6 25 7 23 3 -2 -5 -22 -47 -46 -95 -24 -48 -44 -101
-44 -118 -1 -33 -7 -39 -92 -91 -46 -29 -47 -31 -31 -48 14 -16 22 -17 53 -9
20 5 56 21 79 34 23 13 49 21 57 18 17 -7 96 -101 96 -115 0 -5 -15 -16 -32
-25 -40 -20 -67 -43 -80 -69 -11 -19 -11 -19 18 0 52 35 117 65 141 65 22 0
22 2 -14 53 -21 28 -59 74 -86 100 l-47 48 -31 -26 c-55 -46 -143 -83 -154
-64 -4 5 1 9 10 9 21 0 92 37 132 69 21 16 33 35 33 50 0 23 -1 24 -20 6 -11
-10 -20 -13 -20 -8 0 6 7 16 16 24 8 7 29 42 45 78 16 36 34 68 40 72 6 3 16
23 23 43 l13 37 15 -23 c9 -13 34 -32 57 -42 l41 -19 82 49 c105 63 205 157
214 202 4 18 18 41 33 52 48 36 61 53 61 82 0 33 -26 78 -45 78 -7 0 -15 4
-17 10 -1 5 -19 11 -38 12 -26 2 -35 -1 -38 -15 -7 -33 7 -67 27 -67 20 0 45
-23 35 -33 -3 -3 -14 -2 -23 3 -9 5 -24 11 -33 14 -13 4 -18 16 -18 45 0 49
31 42 -385 77 -79 6 -80 6 -62 -14z m545 -74 c13 -13 16 -38 5 -38 -5 0 -16
12 -26 25 -13 19 -15 25 -4 25 7 0 18 -5 25 -12z"/>
<path d="M1205 1945 c-59 -21 -85 -56 -84 -113 0 -26 4 -56 8 -67 9 -21 8 -23
26 74 4 15 20 41 36 57 27 26 36 29 90 26 68 -3 77 9 20 26 -47 15 -46 15 -96
-3z"/>
<path d="M1484 1814 c-25 -37 -25 -131 0 -169 17 -25 19 -26 34 -11 13 13 17
36 17 96 0 60 -4 83 -17 96 -15 15 -17 14 -34 -12z m25 -86 c-1 -67 -4 -94 -9
-78 -15 47 -11 180 6 180 2 0 4 -46 3 -102z"/>
<path d="M1231 1656 c58 -77 103 -91 194 -61 l40 13 -73 1 -73 1 -52 50 c-68
66 -87 64 -36 -4z"/>
<path d="M1738 1660 l-50 -50 -77 -1 c-75 -1 -75 -1 -41 -14 37 -14 108 -19
133 -9 9 3 38 32 67 65 65 74 41 81 -32 9z"/>
<path d="M1290 1327 c0 -12 7 -31 15 -41 22 -30 17 -45 -5 -17 -25 29 -29 27
-122 -89 l-68 -85 32 -6 c61 -10 224 -117 206 -135 -4 -3 -26 10 -50 30 -44
38 -123 80 -171 90 -23 6 -29 2 -38 -21 -6 -16 -14 -64 -19 -108 -8 -72 -6
-85 14 -129 l22 -49 -1 114 c0 114 11 159 38 159 7 0 53 -23 101 -51 85 -48
116 -55 116 -25 0 19 -76 94 -119 116 -68 36 -68 35 -35 77 53 70 67 83 92 83
14 0 30 7 37 17 18 24 35 7 35 -35 0 -20 7 -45 14 -55 17 -22 79 -41 106 -32
30 10 14 25 -26 25 -49 0 -74 28 -68 77 5 37 3 39 -51 75 -52 35 -55 36 -55
15z"/>
<path d="M1416 1244 c-15 -39 -7 -52 44 -64 66 -16 82 -9 31 14 -39 18 -56 46
-28 46 8 0 7 4 -3 10 -22 14 -37 12 -44 -6z"/>
<path d="M1845 1066 c-47 -14 -132 -69 -117 -74 6 -2 36 9 68 24 66 31 83 26
97 -27 5 -19 7 -77 4 -129 l-6 -95 25 40 c23 37 25 47 20 121 -5 79 -26 155
-43 153 -4 0 -26 -6 -48 -13z"/>
<path d="M1444 990 c-80 -63 -236 -226 -271 -283 -38 -62 -63 -134 -63 -176 0
-20 7 -11 28 35 15 34 32 68 39 75 6 8 20 32 31 54 19 38 273 295 292 295 4 0
23 -15 42 -32 19 -18 67 -61 106 -96 90 -79 158 -168 202 -262 42 -91 41 -89
36 -38 -9 113 -139 280 -340 436 -38 29 -56 28 -102 -8z"/>
<path d="M1046 808 c-4 -13 -11 -66 -16 -118 -5 -52 -14 -126 -20 -165 -9 -52
-9 -103 -1 -196 11 -137 5 -183 -30 -215 -20 -18 -20 -18 18 -30 l38 -12 -63
-1 c-46 -1 -63 -4 -60 -13 3 -9 35 -14 100 -16 118 -3 127 4 103 75 -26 74 1
219 50 273 25 28 40 119 28 181 l-9 54 -22 -48 c-23 -52 -28 -82 -12 -72 21
13 8 -45 -23 -106 -19 -35 -40 -86 -47 -112 -8 -29 -17 -44 -22 -39 -5 5 -12
65 -15 133 -4 97 -2 138 11 187 9 35 16 88 16 117 0 30 4 56 9 60 6 3 6 18 -1
38 -15 45 -24 52 -32 25z m29 -691 c7 -37 6 -39 -16 -35 -28 4 -34 24 -19 63
13 34 26 24 35 -28z"/>
<path d="M1929 794 c-13 -27 -14 -36 -4 -44 21 -17 33 -253 27 -523 -1 -22 6
-57 15 -78 16 -41 7 -69 -23 -69 -10 0 -13 21 -11 98 2 96 1 98 -42 189 -37
78 -43 98 -37 132 4 27 1 54 -10 81 -27 67 -37 49 -32 -59 3 -86 7 -103 30
-139 40 -60 62 -144 53 -211 -3 -31 -7 -72 -8 -91 l-2 -35 103 -3 c85 -2 102
0 102 12 0 11 -15 16 -57 18 -54 4 -56 5 -25 12 29 8 31 10 19 25 -31 36 -38
83 -31 241 4 105 2 170 -6 200 -6 25 -15 93 -19 153 -4 59 -11 111 -17 116 -5
6 -15 -4 -25 -25z"/>
</g>
</svg>
