<?xml version="1.0" standalone="no"?>
<!DOCTYPE svg PUBLIC "-//W3C//DTD SVG 20010904//EN"
 "http://www.w3.org/TR/2001/REC-SVG-20010904/DTD/svg10.dtd">
<svg version="1.0" xmlns="http://www.w3.org/2000/svg"
 width="255.000000pt" height="188.000000pt" viewBox="0 0 255.000000 188.000000"
 preserveAspectRatio="xMidYMid meet">
<metadata>
Created by potrace 1.10, written by Peter Selinger 2001-2011
</metadata>
<g transform="translate(0.000000,188.000000) scale(0.100000,-0.100000)"
fill="#000000" stroke="none">
<path d="M1184 1564 c9 -25 -35 -59 -106 -83 -81 -27 -142 -65 -190 -119 -21
-23 -49 -44 -64 -48 -14 -4 -37 -17 -51 -30 -15 -14 -38 -24 -54 -24 -35 0
-36 -8 -4 -39 16 -15 25 -18 25 -10 0 25 52 46 88 37 17 -5 32 -11 32 -15 0
-10 -41 -42 -64 -49 -23 -7 -36 -22 -36 -41 0 -22 20 -15 61 21 22 18 53 36
69 39 17 4 31 15 35 27 7 22 45 36 71 26 22 -8 13 -42 -32 -131 -20 -38 -31
-65 -25 -60 23 23 81 149 81 177 l0 31 -50 -6 c-60 -7 -66 8 -10 23 52 14 80
0 80 -39 0 -26 -52 -139 -120 -260 -16 -30 -30 -63 -30 -74 0 -10 17 -37 39
-58 21 -22 37 -39 34 -39 -14 0 -64 33 -72 47 -9 15 -10 16 -11 2 0 -37 82
-79 156 -79 38 0 51 -5 74 -30 24 -25 36 -30 77 -30 l49 0 -4 -39 c-2 -22 1
-48 7 -58 8 -15 10 -9 11 29 0 51 12 67 36 47 11 -9 15 -25 12 -51 -2 -25 0
-34 7 -27 5 5 10 30 10 55 l0 44 45 0 c48 0 90 21 90 46 0 10 13 14 48 14 64
0 120 17 148 45 33 34 30 54 -3 23 -16 -14 -36 -28 -46 -31 -10 -4 -2 8 17 27
48 44 48 81 0 160 -47 78 -95 174 -105 210 -9 32 10 76 34 76 24 0 87 -21 87
-29 0 -5 -24 -8 -52 -7 -52 1 -53 0 -51 -27 2 -30 42 -120 67 -152 8 -11 0 12
-19 50 -43 87 -46 125 -9 125 16 0 36 -11 52 -30 15 -16 35 -30 46 -30 10 0
39 -16 62 -36 24 -19 48 -33 53 -30 12 8 1 55 -13 50 -13 -5 -76 32 -76 45 0
5 12 14 28 19 32 11 88 -11 95 -37 4 -14 5 -14 6 0 0 9 10 19 22 22 25 7 16
27 -11 27 -29 0 -70 22 -70 37 0 7 -11 13 -26 13 -17 0 -43 17 -82 56 -55 55
-129 99 -204 123 -49 16 -88 48 -88 72 0 11 -4 17 -10 14 -19 -12 -10 -43 20
-68 16 -14 61 -37 100 -52 63 -24 139 -80 126 -92 -3 -3 -23 2 -46 11 -42 17
-127 20 -170 6 -27 -9 -14 -12 40 -11 19 0 49 -5 65 -13 l30 -13 -40 -8 c-22
-4 -48 -13 -58 -20 -13 -9 -28 -9 -70 2 -41 10 -64 11 -107 2 -30 -6 -60 -16
-67 -21 -9 -7 -21 -3 -39 11 -15 12 -36 21 -48 21 -11 0 -27 4 -35 9 -19 13
53 35 90 27 15 -3 31 -2 33 3 15 24 -118 27 -174 5 -23 -9 -44 -14 -47 -10
-15 14 46 57 131 93 92 40 132 75 120 106 -3 9 -11 17 -16 17 -6 0 -7 -7 -4
-16z m-244 -226 c-1 -15 -49 -53 -57 -45 -5 6 41 57 52 57 3 0 5 -6 5 -12z
m705 -18 c14 -15 15 -20 4 -20 -15 1 -49 23 -49 34 0 13 28 5 45 -14z m-569
-35 c4 -10 14 -13 31 -9 19 5 24 3 21 -7 -3 -8 -11 -14 -19 -14 -8 0 -20 -13
-28 -30 l-14 -30 -6 40 c-4 22 -10 46 -14 53 -5 8 -2 12 8 12 8 0 18 -7 21
-15z m421 -10 c-14 -29 -37 -33 -37 -7 0 23 8 32 31 32 15 0 16 -3 6 -25z
m-134 4 c104 -29 174 -156 147 -268 -26 -108 -109 -173 -220 -173 -203 0 -305
233 -167 379 63 66 148 88 240 62z m-303 -338 c10 -21 16 -41 13 -45 -4 -3 1
-6 10 -6 9 0 17 -4 17 -9 0 -10 -34 -21 -68 -21 -31 0 -82 52 -81 82 1 21 2
21 14 -7 14 -29 14 -29 15 -5 0 14 10 53 22 88 l23 63 7 -51 c5 -28 17 -68 28
-89z m503 12 c2 -46 13 -45 20 2 3 24 4 22 6 -12 1 -34 -4 -45 -25 -62 -42
-33 -118 -24 -78 10 20 16 54 83 54 106 0 36 20 -4 23 -44z m-434 -119 c-11
-13 -39 -20 -39 -9 0 3 5 14 12 25 9 14 15 16 25 8 10 -8 10 -14 2 -24z m138
-30 c28 -4 64 -2 81 4 39 13 64 0 41 -24 -13 -13 -37 -16 -119 -16 -105 1
-128 8 -116 37 5 13 13 16 34 11 15 -3 50 -9 79 -12z"/>
<path d="M1248 1145 c-31 -17 -50 -71 -41 -116 7 -35 56 -79 88 -79 13 0 35 4
49 10 33 12 36 35 4 23 -68 -23 -118 9 -118 78 0 66 42 89 120 68 8 -2 15 3
15 11 0 21 -82 24 -117 5z"/>
<path d="M955 1461 c-56 -33 -143 -117 -131 -128 4 -4 25 13 46 39 22 25 62
60 90 78 43 27 58 40 48 40 -2 0 -25 -13 -53 -29z"/>
<path d="M1557 1473 c12 -10 37 -29 55 -42 18 -13 47 -41 63 -62 17 -21 36
-38 43 -39 8 0 1 17 -18 40 -31 39 -89 85 -140 109 l-25 12 22 -18z"/>
<path d="M1078 485 c-55 -31 -59 -142 -5 -180 36 -25 127 -17 127 12 0 11 -5
13 -17 8 -74 -33 -123 -5 -123 69 0 36 5 48 26 65 29 23 55 26 84 11 18 -10
40 4 26 17 -13 13 -93 12 -118 -2z"/>
<path d="M1240 395 l0 -105 60 0 c48 0 60 3 60 16 0 12 -10 15 -47 13 l-47 -3
3 92 c2 78 0 92 -13 92 -14 0 -16 -16 -16 -105z"/>
<path d="M1400 482 c-37 -30 -21 -69 40 -94 40 -16 50 -25 50 -44 0 -29 -40
-42 -76 -25 -32 14 -34 14 -34 -4 0 -17 59 -30 95 -21 14 4 30 17 36 30 16 34
-3 62 -59 88 -49 24 -59 43 -30 62 13 8 26 7 48 -1 20 -8 32 -8 36 -1 19 30
-72 38 -106 10z"/>
</g>
</svg>
