<svg version="1.1" id="Layer_1" xmlns="http://www.w3.org/2000/svg" xmlns:xlink="http://www.w3.org/1999/xlink" x="0px" y="0px"
	 width="100%" viewBox="0 0 352 352" enable-background="new 0 0 352 352" xml:space="preserve">
<path fill="#000000" opacity="1.000000" stroke="none" 
	d="
M227.499329,154.479187 
	C226.304596,158.918411 230.658722,158.094910 232.562469,160.219330 
	C227.014267,162.406647 223.557648,167.249817 218.090408,168.997574 
	C210.756561,171.342056 208.641571,170.588013 204.980118,163.843735 
	C200.251785,169.453491 195.585190,174.917770 193.566513,181.830994 
	C191.532867,188.795441 195.770996,193.942139 202.996689,194.847351 
	C210.735825,195.816910 218.575058,196.197830 226.141678,198.343826 
	C227.095596,198.614365 228.092819,198.846298 229.211273,197.928009 
	C229.023148,195.030930 225.765549,195.390366 224.300964,193.568802 
	C226.635391,191.164185 229.762268,194.471603 232.107010,192.497330 
	C233.201660,190.788956 232.085785,189.175522 231.378448,187.860718 
	C226.873291,179.486618 228.471741,171.609146 232.909348,163.850708 
	C233.914703,162.092957 235.193649,160.726151 237.303421,161.731888 
	C242.842880,164.372528 249.816696,165.680466 253.127441,170.804199 
	C257.039032,176.857834 262.426239,180.826157 267.531494,185.371674 
	C268.877563,186.570175 269.877075,188.182205 270.935669,189.675308 
	C278.260406,200.006790 278.029144,201.693405 270.389252,211.448914 
	C265.442566,217.765442 259.740051,222.777466 252.236069,225.803680 
	C247.599686,227.673447 244.864822,231.975845 241.552734,235.432663 
	C239.637451,237.431625 241.687042,240.211731 241.402023,242.657974 
	C241.158630,244.746857 242.018784,246.945877 240.608383,249.377762 
	C238.743469,247.713074 238.926834,245.526642 238.502670,243.600830 
	C237.163559,237.521027 234.228577,236.323807 229.483307,240.276657 
	C226.893219,242.434219 224.996124,243.997498 222.192490,240.489609 
	C220.789963,238.734802 218.363419,239.985733 216.502487,240.490891 
	C211.185471,241.934219 205.911606,243.509125 200.302948,242.477661 
	C197.791687,242.015823 196.814713,243.691360 195.750885,245.506210 
	C194.717972,247.268372 194.866486,249.717804 193.047302,250.905075 
	C191.884750,250.612930 191.828903,249.911270 191.750839,249.271011 
	C190.883896,242.160904 190.870193,242.063446 183.679459,243.378036 
	C171.434753,245.616577 159.151917,245.353760 146.876602,243.972458 
	C139.460144,243.137909 138.327896,243.624908 135.730728,250.494370 
	C135.283295,251.677826 135.355347,253.206085 133.808807,253.762009 
	C132.559158,250.350433 134.235413,237.788727 136.761795,233.979172 
	C138.125580,231.922699 138.833618,229.858337 138.811844,227.461182 
	C138.745407,220.151733 139.161392,212.796997 138.476044,205.546249 
	C137.863113,199.061523 133.817154,193.860458 129.596848,189.092316 
	C125.410286,184.362289 122.222626,179.247559 121.616592,172.817673 
	C121.359100,170.085693 119.879044,168.732346 117.167900,168.312515 
	C107.521927,166.818771 99.680717,162.207336 93.724579,154.436661 
	C93.324005,153.914047 92.866631,153.397934 92.335884,153.018326 
	C89.399002,150.917801 85.162918,149.303040 85.779030,145.009781 
	C86.580780,139.422897 88.540573,133.892426 93.073982,130.075760 
	C100.077339,124.179657 107.470566,118.745476 114.450020,112.822639 
	C118.204330,109.636681 122.300499,108.717560 126.957764,109.147858 
	C128.944687,109.331436 130.931747,109.541771 132.923645,109.636108 
	C135.417374,109.754211 138.207993,109.396019 139.081924,112.576370 
	C139.795578,115.173439 138.965088,117.606056 137.048141,119.442062 
	C134.916122,121.484055 132.335968,121.640648 129.605972,120.617813 
	C127.729713,119.914841 126.820969,116.639404 124.152702,118.235359 
	C120.528976,120.402794 117.090851,123.236557 115.887756,127.257996 
	C114.812119,130.853439 113.669762,134.492294 112.466057,138.811371 
	C119.508339,139.135941 124.837334,144.378372 132.027557,143.707932 
	C136.424026,143.297974 140.513412,144.640213 144.180756,147.360580 
	C147.164886,149.574127 151.352966,147.952713 151.713638,144.330185 
	C152.033813,141.114182 152.237000,137.770233 150.167068,134.716080 
	C148.056686,131.602249 146.771957,128.359879 149.710007,124.675865 
	C151.564850,122.350075 150.705597,119.159401 150.568344,116.394257 
	C150.337662,111.746422 151.644989,108.040276 156.126328,106.282448 
	C161.241302,104.276077 166.750671,103.347839 171.334793,107.086617 
	C175.779709,110.711830 177.352783,115.651039 178.532059,121.658714 
	C180.075485,129.521393 176.620819,135.773041 175.648346,142.738937 
	C175.160049,146.236496 176.051529,148.132904 178.988388,150.118042 
	C184.757751,154.017776 191.172333,156.213531 197.644730,158.352737 
	C200.124573,159.172363 202.792786,158.890442 204.703064,157.065155 
	C206.751770,155.107559 204.391098,153.434967 203.662140,151.761093 
	C199.989471,143.327805 200.308853,134.770203 202.671082,126.121300 
	C203.421997,123.372002 205.239792,121.441093 207.683334,120.184975 
	C212.412384,117.753960 217.684189,118.561058 222.659912,118.411812 
	C225.966675,118.312630 228.148102,121.535019 228.532410,124.950882 
	C228.857025,127.836113 229.642731,130.374680 231.964157,132.725601 
	C228.206894,135.035721 229.677582,137.396652 232.052292,139.958252 
	C226.233337,143.417709 232.375015,150.282776 227.499329,154.479187 
M256.090851,207.586533 
	C257.089600,205.081238 261.299164,202.711258 258.123688,199.994217 
	C254.152588,196.596405 250.830765,192.770309 247.587708,188.782867 
	C245.763763,186.540298 243.829605,186.031952 241.906296,188.594620 
	C235.336182,197.348831 229.342346,206.225479 232.331558,218.177933 
	C233.681488,223.575699 236.709229,225.074997 241.284424,221.879227 
	C246.776001,218.043365 251.583405,213.474213 256.090851,207.586533 
M194.691452,197.141266 
	C186.655960,202.845123 185.059250,209.351227 189.957947,217.052582 
	C193.436050,215.128403 193.761169,210.097885 198.469589,209.085541 
	C196.497910,205.178482 196.497391,201.156448 194.691452,197.141266 
z"/>
</svg>