<?xml version="1.0" standalone="no"?>
<!DOCTYPE svg PUBLIC "-//W3C//DTD SVG 20010904//EN"
 "http://www.w3.org/TR/2001/REC-SVG-20010904/DTD/svg10.dtd">
<svg version="1.0" xmlns="http://www.w3.org/2000/svg"
 width="221.000000pt" height="210.000000pt" viewBox="0 0 221.000000 210.000000"
 preserveAspectRatio="xMidYMid meet">
<metadata>
Created by potrace 1.10, written by Peter Selinger 2001-2011
</metadata>
<g transform="translate(0.000000,210.000000) scale(0.100000,-0.100000)"
fill="#000000" stroke="none">
<path d="M963 1602 c-251 -90 -272 -432 -35 -549 47 -23 70 -28 132 -28 174 0
295 121 295 295 0 85 -21 142 -74 203 -72 81 -213 117 -318 79z m228 -44 c83
-49 129 -121 136 -213 7 -78 -8 -128 -54 -189 -98 -128 -286 -140 -402 -27
-142 138 -90 378 96 447 59 22 171 13 224 -18z"/>
<path d="M1006 1535 c-19 -10 -21 -20 -24 -120 -2 -63 2 -127 8 -149 8 -27 8
-42 1 -49 -6 -6 -11 -26 -11 -44 0 -67 74 -105 128 -67 21 14 23 24 23 88 -1
39 2 128 5 198 6 126 6 127 -19 143 -26 17 -77 17 -111 0z m111 -82 c-4 -38
-7 -96 -7 -130 l0 -63 -50 0 -50 0 0 53 c0 30 -3 88 -6 130 l-7 77 63 0 63 0
-6 -67z m-7 -283 l0 -50 -50 0 -50 0 0 50 0 50 50 0 50 0 0 -50z"/>
<path d="M1600 721 c0 -28 -2 -29 -34 -24 -27 4 -36 1 -50 -18 -20 -29 -20
-58 0 -87 12 -18 24 -22 55 -20 l39 3 0 88 c0 48 -2 87 -5 87 -3 0 -5 -13 -5
-29z m-16 -47 c30 -29 10 -94 -28 -94 -21 0 -36 23 -36 55 0 50 33 71 64 39z"/>
<path d="M520 655 c0 -101 18 -115 22 -18 l3 67 44 -67 c24 -37 47 -67 52 -67
5 0 9 38 9 85 0 53 -4 85 -11 85 -7 0 -8 -23 -3 -70 3 -38 5 -70 2 -70 -2 0
-26 32 -52 70 -27 39 -52 70 -57 70 -5 0 -9 -38 -9 -85z"/>
<path d="M970 655 c0 -50 4 -85 10 -85 6 0 10 18 10 39 0 40 0 40 43 44 l42 4
-42 1 c-42 2 -43 3 -43 36 0 34 1 35 43 39 40 3 40 4 -10 5 l-53 2 0 -85z"/>
<path d="M830 715 c0 -8 -6 -15 -12 -15 -10 0 -10 -2 -1 -8 6 -4 13 -32 15
-62 3 -53 4 -55 33 -57 26 -2 27 -2 9 6 -18 8 -23 20 -25 60 -4 45 -2 51 16
52 17 1 17 2 3 6 -10 2 -18 11 -18 19 0 8 -4 14 -10 14 -5 0 -10 -7 -10 -15z"/>
<path d="M696 678 c-33 -46 -7 -108 44 -108 32 0 60 31 60 65 0 34 -28 65 -60
65 -18 0 -34 -8 -44 -22z m65 2 c27 -15 26 -75 -1 -90 -14 -8 -26 -8 -40 0
-26 14 -28 74 -2 89 21 13 20 13 43 1z"/>
<path d="M1096 678 c-33 -46 -7 -108 44 -108 32 0 60 31 60 65 0 34 -28 65
-60 65 -18 0 -34 -8 -44 -22z m65 2 c27 -15 26 -75 -1 -90 -14 -8 -26 -8 -40
0 -26 14 -28 74 -2 89 21 13 20 13 43 1z"/>
<path d="M1232 649 c-2 -66 9 -80 62 -77 l36 3 -1 65 -2 65 -6 -53 c-6 -50
-20 -71 -47 -72 -21 0 -33 25 -37 75 l-3 50 -2 -56z"/>
<path d="M1370 633 c0 -35 4 -63 10 -63 6 0 10 24 10 54 0 46 3 56 20 61 32
10 49 -12 53 -68 3 -42 4 -40 3 13 l-1 65 -47 0 -48 1 0 -63z"/>
</g>
</svg>
