<?xml version="1.0" standalone="no"?>
<!DOCTYPE svg PUBLIC "-//W3C//DTD SVG 20010904//EN"
 "http://www.w3.org/TR/2001/REC-SVG-20010904/DTD/svg10.dtd">
<svg version="1.0" xmlns="http://www.w3.org/2000/svg"
 width="300.000000pt" height="156.000000pt" viewBox="0 0 300.000000 156.000000"
 preserveAspectRatio="xMidYMid meet">
<metadata>
Created by potrace 1.10, written by Peter Selinger 2001-2011
</metadata>
<g transform="translate(0.000000,156.000000) scale(0.100000,-0.100000)"
fill="#000000" stroke="none">
<path d="M2604 1451 c-91 -61 -168 -82 -249 -68 -90 17 -158 -9 -277 -104 -24
-20 -31 -21 -85 -11 -32 6 -107 11 -168 11 -71 0 -125 5 -152 15 -101 36 -218
32 -275 -9 -60 -43 -172 -97 -218 -105 -25 -4 -74 -15 -110 -25 -55 -15 -90
-16 -220 -11 -85 3 -172 2 -193 -3 -36 -9 -37 -8 -31 12 3 12 12 32 20 44 20
32 17 74 -9 132 -34 71 -44 82 -76 74 -28 -7 -158 -121 -178 -157 -26 -45 -52
-126 -54 -168 -3 -75 -9 -89 -33 -82 -32 11 -93 6 -129 -10 -17 -8 -57 -37
-87 -66 -45 -43 -57 -60 -67 -103 -12 -53 -5 -77 22 -77 7 0 23 -20 35 -44 25
-52 65 -85 152 -126 107 -51 188 -38 188 30 0 33 21 50 83 70 32 10 41 9 55
-2 9 -8 38 -27 65 -42 26 -15 58 -44 72 -66 27 -43 73 -63 144 -63 35 0 49 5
67 26 13 15 33 27 47 27 13 0 32 7 43 15 27 20 34 19 34 -9 0 -12 20 -54 45
-92 59 -90 81 -163 53 -181 -7 -4 -42 -10 -78 -14 l-65 -7 -77 -82 c-43 -46
-78 -90 -78 -99 0 -32 28 -55 81 -68 77 -18 83 -17 135 23 30 24 74 44 121 56
102 28 119 50 129 165 9 116 11 340 2 378 -6 27 -3 32 23 44 16 7 62 36 102
65 l73 52 80 -9 c106 -14 180 -13 197 1 14 12 47 17 165 26 89 7 187 39 264
86 37 22 72 40 79 40 14 0 81 48 92 67 5 7 35 27 68 43 33 17 76 45 97 63 20
19 51 43 69 55 30 21 32 22 38 3 3 -10 1 -30 -4 -45 -11 -26 -6 -56 9 -56 4 0
11 -11 14 -25 4 -16 21 -32 46 -45 22 -11 40 -25 40 -31 0 -7 11 -9 25 -7 14
3 28 1 31 -3 3 -5 27 -9 54 -9 42 0 51 4 79 35 36 41 46 73 37 118 -4 17 -10
86 -15 152 -5 79 -13 131 -25 152 -22 44 -59 52 -107 26 l-37 -20 -7 26 c-19
76 -72 80 -171 12z m140 7 c47 -67 -1 -97 -169 -108 -123 -8 -169 -23 -250
-85 -90 -69 -126 -78 -286 -65 -77 6 -143 9 -147 6 -4 -2 -15 9 -24 25 l-17
29 52 0 c29 0 70 -5 92 -10 55 -13 109 -3 121 22 5 11 35 36 67 56 69 42 142
53 200 29 20 -9 39 -12 42 -8 2 5 26 14 52 21 56 14 154 64 179 91 24 26 69
24 88 -3z m160 -51 c11 -15 17 -58 20 -132 2 -61 9 -123 15 -138 17 -45 13
-76 -16 -123 -30 -47 -48 -52 -138 -36 -51 9 -54 28 -15 77 36 45 34 80 -8
130 l-25 30 31 3 c48 5 38 22 -13 22 -66 0 -141 -33 -220 -96 -80 -64 -138
-96 -158 -88 -9 3 -19 -6 -27 -26 -14 -34 -54 -70 -78 -70 -11 0 -8 9 13 30
16 16 25 33 22 37 -4 3 -35 -23 -69 -59 -49 -50 -77 -70 -122 -87 -63 -23 -73
-23 -58 6 17 32 23 97 14 140 -9 41 -9 42 19 48 16 4 43 5 60 3 18 -2 30 1 28
7 -2 6 -30 10 -62 10 -48 0 -60 4 -69 20 -6 11 -20 31 -32 44 l-21 24 75 -8
c117 -12 229 -4 181 13 -9 3 -3 9 17 18 17 7 55 31 85 53 73 56 121 71 220 69
93 -2 168 21 232 72 45 36 79 38 99 7z m-2318 -25 c12 -8 50 -88 59 -123 4
-17 -2 -35 -20 -58 -14 -19 -25 -43 -25 -53 0 -17 -15 -23 -53 -20 -11 1 -17
-3 -14 -10 5 -15 32 -15 107 1 37 8 109 9 221 5 152 -6 171 -5 230 14 114 37
214 56 235 44 17 -10 16 -11 -9 -17 -15 -4 -27 -11 -27 -16 0 -13 17 -11 50 6
26 14 34 13 72 -2 60 -23 95 -49 129 -96 25 -34 29 -49 29 -104 0 -62 0 -63
-28 -63 -15 0 -33 5 -40 12 -9 9 -12 8 -12 -5 0 -11 11 -20 30 -23 41 -9 38
-20 -12 -45 -24 -12 -70 -41 -103 -64 -53 -38 -117 -75 -128 -75 -8 0 -49 151
-43 158 4 3 20 -9 36 -26 27 -30 70 -44 70 -22 0 6 -9 10 -21 10 -11 0 -17 5
-14 10 3 6 18 8 33 4 25 -5 26 -4 8 10 -13 11 -25 12 -42 6 -13 -5 -24 -6 -24
-2 0 4 -24 18 -52 32 l-53 25 70 5 c69 5 131 32 119 51 -3 5 -17 0 -31 -11
-19 -14 -41 -20 -80 -20 l-55 0 22 35 c19 30 19 35 5 35 -9 0 -22 -15 -30 -33
-22 -53 -38 -61 -129 -62 -65 -1 -88 -6 -118 -24 -32 -19 -45 -21 -99 -15 -45
5 -60 4 -55 -5 4 -6 22 -11 39 -12 25 0 28 -2 13 -8 -13 -5 -16 -10 -8 -14 6
-4 35 2 64 14 108 43 124 47 196 44 57 -2 77 -6 91 -21 27 -29 81 -207 87
-288 5 -57 -7 -267 -20 -371 -6 -50 -40 -73 -131 -89 -37 -7 -86 -37 -127 -78
-21 -21 -37 -23 -44 -4 -3 8 -15 11 -30 8 -13 -2 -24 -2 -24 2 0 15 64 91 100
119 22 17 40 35 40 39 0 4 9 8 21 8 11 0 18 4 14 10 -9 14 -36 0 -80 -42 -22
-21 -43 -38 -46 -38 -3 0 -19 -20 -35 -45 -16 -26 -36 -45 -46 -45 -10 0 -18
2 -18 5 0 14 75 107 107 131 70 56 78 64 67 64 -21 0 -120 -89 -161 -145 -15
-21 -22 -25 -22 -13 -1 9 31 49 70 89 68 70 73 73 132 81 74 10 107 30 107 63
0 40 -34 118 -74 170 -41 54 -47 104 -21 155 22 43 -1 38 -26 -5 -12 -20 -29
-40 -39 -45 -24 -13 -63 -13 -55 0 14 23 -8 7 -41 -30 -31 -34 -42 -40 -75
-40 -56 0 -105 23 -123 59 -9 16 -26 37 -38 46 -23 17 -22 17 15 11 21 -4 37
-3 37 2 0 13 -36 22 -86 22 -40 0 -83 28 -67 43 14 15 -33 6 -74 -14 -50 -24
-63 -19 -63 25 0 33 -33 76 -47 62 -5 -4 0 -12 10 -17 19 -11 23 -76 7 -143
-15 -67 -51 -73 -155 -23 -127 62 -165 109 -165 210 0 44 5 62 31 96 34 48 95
80 151 81 27 0 46 -8 71 -30 41 -36 84 -39 118 -9 18 16 20 19 6 15 -14 -4
-23 4 -37 37 -26 55 -25 62 10 132 16 33 30 74 30 92 0 47 13 73 64 126 47 48
53 52 72 39z m1017 -88 c20 -4 37 -12 37 -19 0 -7 18 -15 40 -18 21 -3 65 -21
96 -40 54 -34 60 -36 120 -30 54 5 67 3 85 -13 76 -69 95 -289 28 -325 -11 -5
-59 -13 -107 -16 -48 -3 -109 -14 -135 -24 -53 -21 -93 -24 -132 -9 -24 9 -25
11 -11 37 29 57 37 109 25 158 -6 25 -16 48 -22 52 -7 4 -8 -2 -3 -18 19 -64
18 -106 -5 -158 -21 -51 -46 -71 -86 -71 -12 0 -9 6 9 23 33 31 62 117 53 159
-12 53 -42 105 -79 134 -39 31 -134 72 -189 81 -32 5 -36 8 -22 16 28 15 111
2 166 -27 29 -14 55 -24 58 -20 8 8 -26 31 -66 46 -39 14 -42 23 -10 33 12 3
17 9 10 11 -7 3 -21 1 -32 -5 -11 -6 -30 -11 -42 -11 -35 0 -10 19 53 41 56
19 99 23 161 13z m-1180 -91 c-13 -48 -31 -99 -39 -114 -18 -37 -18 -55 6
-106 18 -41 18 -43 1 -43 -10 0 -26 9 -36 20 -25 27 -15 124 21 214 22 56 58
116 68 116 2 0 -7 -39 -21 -87z m1363 57 c25 0 81 -46 70 -57 -3 -3 -29 7 -58
22 -55 28 -88 53 -55 41 10 -3 30 -6 43 -6z m956 -78 c40 -60 42 -76 13 -110
-14 -16 -25 -40 -25 -52 0 -13 -4 -19 -11 -14 -6 3 -9 17 -6 30 2 13 0 24 -4
24 -5 0 -9 -10 -9 -21 0 -18 -2 -19 -15 -9 -8 7 -15 17 -15 23 0 6 -7 19 -17
29 -13 15 -14 23 -5 44 9 18 9 31 1 45 -6 12 -9 22 -7 23 5 3 62 24 69 25 4 1
18 -16 31 -37z m-2689 -314 c-4 -7 -6 -23 -5 -35 2 -11 -2 -24 -7 -28 -6 -3
-11 -11 -11 -16 0 -6 4 -7 10 -4 5 3 10 -1 10 -9 0 -8 -5 -18 -10 -21 -6 -3
-10 1 -10 10 0 9 -4 13 -10 10 -5 -3 -3 10 5 29 9 20 15 39 14 43 -3 19 2 33
12 33 6 0 7 -5 2 -12z"/>
<path d="M2663 1413 c-23 -9 -13 -20 17 -19 33 1 39 10 14 20 -9 3 -16 6 -17
5 -1 0 -8 -3 -14 -6z"/>
<path d="M2216 1280 c-32 -22 -65 -40 -72 -40 -7 0 -16 -5 -20 -11 -12 -20 46
0 92 32 23 16 47 29 53 29 6 0 11 7 11 15 0 8 -1 15 -2 15 -2 0 -29 -18 -62
-40z"/>
<path d="M2686 1330 c-27 -10 -44 -20 -40 -23 11 -6 82 17 97 32 14 14 3 12
-57 -9z"/>
<path d="M2810 1335 c0 -13 3 -13 20 -3 17 11 22 10 30 -2 5 -8 12 -11 15 -8
13 13 -7 28 -36 28 -19 0 -29 -5 -29 -15z"/>
<path d="M2577 1257 c-17 -27 -125 -87 -156 -87 -12 0 -21 -4 -21 -10 0 -17
30 -11 94 19 67 33 106 64 106 86 0 21 -5 19 -23 -8z"/>
<path d="M2285 1160 c-3 -5 -17 -10 -31 -10 -13 0 -24 -4 -24 -10 0 -5 9 -10
21 -10 25 0 59 17 59 30 0 13 -17 13 -25 0z"/>
<path d="M2480 1145 c-6 -8 -27 -20 -46 -27 -19 -6 -34 -16 -34 -20 0 -12 18
-10 48 6 31 16 70 56 55 56 -6 0 -16 -7 -23 -15z"/>
<path d="M2890 1040 c-8 -5 -27 -6 -42 -3 -17 3 -28 1 -28 -6 0 -14 77 -15 85
0 10 15 2 20 -15 9z"/>
<path d="M2135 973 c-27 -14 -45 -28 -38 -30 11 -4 113 43 113 52 0 11 -28 3
-75 -22z"/>
<path d="M500 1292 c0 -30 25 -38 56 -17 31 20 26 32 -6 13 -18 -11 -23 -11
-36 6 -14 19 -14 19 -14 -2z"/>
<path d="M1135 1114 c-82 -30 -122 -34 -199 -23 -63 10 -82 9 -114 -4 -21 -8
-60 -18 -87 -22 -69 -10 -127 -39 -148 -74 -9 -16 -45 -48 -80 -72 -75 -51
-72 -48 -64 -55 9 -10 98 55 153 111 43 44 60 55 105 64 30 6 83 19 119 28 48
12 78 14 115 8 37 -7 43 -10 24 -13 -28 -3 -87 -57 -76 -69 4 -4 22 8 40 25
18 18 43 32 54 32 12 0 25 5 28 10 3 6 16 10 28 10 13 0 48 9 78 20 31 10 73
20 93 22 20 1 36 6 36 10 0 13 -62 8 -105 -8z"/>
<path d="M720 1110 c0 -5 -21 -10 -46 -10 -45 0 -89 -16 -128 -45 -36 -27 -7
-28 34 -1 27 18 53 26 83 26 23 0 53 7 65 16 14 9 36 14 53 12 16 -3 29 -1 29
4 0 4 -20 8 -45 8 -25 0 -45 -4 -45 -10z"/>
<path d="M803 998 c-13 -6 -23 -15 -23 -20 0 -5 6 -7 13 -4 6 3 20 9 30 12 9
4 17 10 17 15 0 11 -9 10 -37 -3z"/>
<path d="M810 967 c-25 -9 -36 -19 -38 -36 -2 -14 -17 -37 -33 -52 -20 -19
-29 -37 -29 -59 0 -36 36 -103 51 -94 5 3 0 18 -11 34 -36 51 -20 105 40 130
34 14 42 35 9 25 -18 -6 -19 -5 -10 14 7 12 25 22 49 26 20 3 55 10 77 14 l40
9 -55 0 c-30 1 -71 -4 -90 -11z"/>
<path d="M1025 850 c-12 -4 -27 -15 -34 -24 -16 -19 -51 -22 -51 -4 0 9 -3 9
-11 1 -17 -17 -3 -43 21 -43 12 0 31 11 43 24 12 13 32 26 45 30 12 4 22 12
22 17 0 11 -8 11 -35 -1z"/>
<path d="M1120 843 c0 -14 15 -30 37 -42 36 -18 37 -13 3 19 -33 31 -40 35
-40 23z"/>
<path d="M490 810 c0 -5 4 -10 10 -10 5 0 21 -18 35 -40 30 -47 45 -56 108
-62 39 -5 45 -3 36 8 -6 7 -31 14 -56 16 -34 2 -49 8 -57 23 -27 49 -48 75
-62 75 -8 0 -14 -4 -14 -10z"/>
<path d="M1025 719 c-10 -16 4 -24 17 -11 20 20 38 13 53 -20 13 -31 14 -32
15 -7 0 14 -5 30 -12 37 -15 15 -64 16 -73 1z"/>
<path d="M746 679 c-27 -32 -33 -54 -16 -64 6 -3 10 3 10 15 0 11 11 32 25 46
27 27 30 34 16 34 -5 0 -21 -14 -35 -31z"/>
<path d="M1100 625 c0 -4 10 -15 22 -25 18 -14 23 -30 26 -86 2 -38 9 -73 14
-79 20 -20 2 135 -19 163 -19 25 -43 40 -43 27z"/>
<path d="M1022 129 c-28 -29 -52 -57 -52 -62 0 -11 117 93 119 106 3 17 -18 4
-67 -44z"/>
<path d="M1765 1087 c-17 -42 -19 -57 -5 -57 11 0 34 79 26 88 -3 3 -13 -11
-21 -31z"/>
<path d="M1795 924 c-22 -7 -57 -14 -77 -14 -21 0 -38 -4 -38 -10 0 -5 16 -10
35 -10 47 0 37 -26 -16 -40 -45 -12 -52 -30 -12 -30 18 0 39 13 68 46 l43 46
75 -7 c74 -7 157 0 157 14 0 3 -33 6 -72 6 -40 0 -84 3 -98 7 -14 4 -42 0 -65
-8z"/>
<path d="M2666 1103 c-5 -11 -2 -13 10 -9 8 3 28 -1 44 -9 16 -8 31 -11 34 -7
3 5 -15 15 -39 24 -39 15 -44 15 -49 1z"/>
</g>
</svg>
