<?xml version="1.0" standalone="no"?>
<!DOCTYPE svg PUBLIC "-//W3C//DTD SVG 20010904//EN"
 "http://www.w3.org/TR/2001/REC-SVG-20010904/DTD/svg10.dtd">
<svg version="1.0" xmlns="http://www.w3.org/2000/svg"
 width="249.000000pt" height="300.000000pt" viewBox="0 0 249.000000 300.000000"
 preserveAspectRatio="xMidYMid meet">
<metadata>
Created by potrace 1.10, written by Peter Selinger 2001-2011
</metadata>
<g transform="translate(0.000000,300.000000) scale(0.100000,-0.100000)"
fill="#000000" stroke="none">
<path d="M894 2455 c-24 -14 -49 -40 -58 -59 -18 -37 -22 -142 -7 -192 l9 -31
-66 -6 c-38 -4 -72 -13 -82 -22 -12 -11 -32 -15 -61 -13 l-44 3 -7 49 c-8 61
-24 101 -56 145 -84 114 -228 45 -273 -132 l-11 -47 -60 0 c-43 0 -60 -4 -64
-15 -11 -27 16 -45 65 -45 l47 0 12 -75 c27 -176 131 -260 234 -190 45 31 96
129 105 203 l6 52 44 0 c26 0 45 -5 47 -12 2 -7 9 -31 17 -53 9 -26 14 -85 14
-170 0 -130 0 -130 33 -179 17 -27 32 -52 32 -56 0 -8 46 -30 63 -30 13 0 54
29 88 62 17 16 21 14 68 -38 56 -61 64 -80 29 -68 -30 11 -51 9 -130 -11 -62
-16 -71 -22 -149 -101 -117 -118 -123 -149 -40 -238 26 -28 62 -74 80 -103 18
-28 52 -68 77 -88 25 -21 52 -48 61 -61 15 -23 14 -27 -13 -65 -33 -49 -70
-78 -141 -114 -65 -32 -69 -54 -14 -90 54 -36 123 -27 203 25 32 21 75 41 97
45 22 3 47 15 56 25 16 17 14 25 -30 137 -26 65 -60 158 -75 207 -18 55 -39
99 -56 117 -19 20 -23 29 -13 30 19 1 42 6 68 14 18 5 21 2 21 -23 0 -18 10
-38 26 -53 14 -13 39 -50 56 -82 19 -35 58 -83 97 -119 113 -103 123 -138 69
-236 -38 -70 -61 -96 -115 -134 -55 -37 -56 -61 -3 -82 92 -37 218 -9 259 57
12 20 38 49 58 65 l36 28 -31 95 c-17 52 -41 139 -53 194 -25 119 -47 165 -94
201 -19 14 -35 29 -35 33 0 3 27 6 59 6 53 0 63 4 91 30 17 17 41 45 52 64 20
32 21 38 9 110 -7 42 -21 91 -32 109 -22 38 -25 52 -7 34 39 -39 145 34 173
121 19 62 35 165 35 241 0 33 5 75 12 93 12 33 12 33 79 33 l66 0 6 -69 c7
-88 39 -161 88 -206 69 -62 150 -44 211 46 27 41 58 125 58 160 0 47 8 50 96
43 l83 -7 7 27 c3 15 4 29 2 31 -2 3 -43 8 -91 11 l-87 7 -6 36 c-13 82 -38
137 -79 179 -38 37 -48 42 -88 42 -37 0 -53 -6 -81 -31 -45 -39 -74 -87 -96
-157 l-18 -57 -68 4 c-38 1 -76 9 -84 16 -8 7 -44 20 -79 29 -60 15 -65 15
-83 0 -10 -10 -18 -23 -18 -31 0 -21 -126 -17 -196 8 -32 11 -79 26 -104 33
-61 17 -88 60 -71 115 35 118 -23 201 -139 201 -41 0 -66 -7 -96 -25z m160 -9
c55 -23 79 -96 55 -165 -14 -41 -6 -73 32 -116 29 -33 59 -49 43 -24 -8 14 47
3 56 -10 3 -5 23 -11 45 -15 61 -11 120 -75 125 -136 4 -49 2 -50 -42 -31 -61
25 -96 33 -103 21 -3 -5 3 -10 15 -10 11 0 38 -9 60 -20 22 -11 49 -20 60 -20
28 0 70 -44 70 -73 0 -14 -7 -31 -17 -38 -32 -28 -59 -129 -33 -129 6 0 10 15
10 33 1 40 16 67 58 102 42 35 62 74 62 122 0 28 3 34 10 23 8 -13 10 -12 10
3 0 10 -16 27 -35 38 -19 12 -35 24 -35 27 0 4 -3 17 -6 30 -6 19 -3 22 25 22
35 0 42 -15 10 -23 -13 -3 -18 -10 -14 -17 5 -9 10 -9 18 -1 6 6 20 11 30 11
14 0 18 -5 14 -20 -3 -10 1 -27 8 -37 7 -9 11 -23 8 -30 -3 -7 0 -13 6 -13 6
0 11 2 11 4 0 2 3 11 6 20 4 11 1 16 -10 16 -18 0 -22 35 -5 45 6 4 24 8 40 9
30 2 38 -11 17 -32 -8 -8 -11 -40 -9 -92 2 -84 -26 -230 -56 -280 -14 -24 -74
-70 -91 -70 -5 0 -27 9 -50 20 -31 15 -49 34 -70 71 -15 28 -44 72 -64 97 -40
49 -51 77 -20 49 18 -17 84 -47 102 -47 26 0 5 17 -41 33 -33 12 -53 26 -56
38 -8 29 -32 23 -54 -16 -43 -72 -187 -73 -234 -1 -9 14 -18 43 -19 65 -1 22
-6 44 -10 48 -5 4 -6 -19 -4 -51 4 -53 9 -63 40 -90 62 -55 82 -66 121 -73 21
-3 42 -13 47 -24 13 -24 39 -49 51 -49 6 0 -6 20 -27 45 -30 37 -42 45 -70 45
-18 0 -36 5 -39 10 -4 6 13 10 45 10 53 0 87 12 107 39 10 14 12 14 18 -2 5
-11 0 -23 -16 -36 -13 -11 -20 -23 -16 -28 5 -4 15 0 22 11 8 11 21 16 30 13
21 -9 19 -24 -5 -39 -11 -7 -20 -16 -20 -20 0 -13 21 -9 36 7 23 22 26 20 55
-35 l27 -50 -29 -24 c-73 -62 -235 -74 -302 -23 -19 14 -40 40 -47 58 -12 27
-11 32 3 41 9 5 17 13 17 19 0 5 -11 2 -26 -7 -16 -11 -23 -23 -19 -32 12 -31
-37 22 -51 55 -20 47 -18 51 23 55 20 2 38 8 40 15 3 9 -3 9 -25 1 -44 -17
-92 0 -115 40 -21 35 -27 102 -14 140 5 13 4 22 -2 22 -5 0 -13 -15 -17 -32
-6 -29 -8 -30 -15 -13 -27 69 2 131 76 165 54 25 53 25 76 -2 14 -18 18 -20
19 -7 0 9 -7 22 -15 29 -21 18 -19 29 10 40 38 14 65 47 64 78 l-1 27 -12 -28
c-18 -42 -63 -67 -118 -67 -26 0 -50 5 -54 11 -3 6 -9 48 -11 92 -4 61 -1 92
10 119 28 66 124 96 201 64z m-584 -98 c42 -29 82 -104 88 -166 l4 -47 -63 0
c-62 0 -64 -1 -64 -25 0 -24 3 -25 66 -28 l66 -3 -9 -51 c-14 -74 -62 -165
-101 -188 -50 -31 -90 -26 -131 16 -47 48 -69 120 -70 219 0 100 24 180 72
236 54 63 89 72 142 37z m1624 -49 c36 -31 68 -101 79 -171 l6 -38 -69 0 c-53
0 -69 -3 -74 -16 -12 -30 13 -44 80 -44 l64 0 -6 -32 c-26 -147 -94 -238 -177
-238 -110 0 -179 211 -128 393 43 156 141 220 225 146z m-1304 -169 c0 -11 -7
-20 -15 -20 -15 0 -21 21 -8 33 12 13 23 7 23 -13z m60 13 c0 -5 -12 -16 -25
-26 -25 -18 -25 -18 -25 8 0 20 5 25 25 25 14 0 25 -3 25 -7z m693 -24 c-17
-35 -28 -32 -19 6 4 14 13 25 20 25 12 0 12 -5 -1 -31z m-1337 11 c19 0 34 -4
34 -10 0 -5 -25 -10 -55 -10 -51 0 -65 7 -48 24 4 3 13 4 21 1 7 -3 29 -5 48
-5z m516 -30 c2 -27 0 -40 -9 -40 -15 0 -28 43 -19 65 10 28 24 15 28 -25z
m30 5 c2 -22 0 -34 -6 -32 -14 4 -21 67 -8 67 6 0 12 -16 14 -35z m819 -10
c-7 -39 -7 -40 -14 -12 -5 18 -3 34 4 43 16 20 18 15 10 -31z m42 3 c-7 -54
-10 -56 -24 -26 -8 19 -8 31 0 47 19 34 30 24 24 -21z m52 22 c3 -5 1 -10 -4
-10 -6 0 -11 -12 -11 -26 0 -29 -23 -29 -28 0 -6 30 29 59 43 36z m-985 -15
c0 -17 -68 -20 -178 -9 -98 11 -61 24 64 24 95 0 114 -3 114 -15z m210 10 c0
-2 -9 -9 -19 -14 -14 -8 -22 -7 -31 4 -11 13 -8 15 19 15 17 0 31 -2 31 -5z
m-65 -25 c18 0 18 -1 -3 -15 -16 -12 -26 -13 -42 -5 -27 15 -26 34 3 26 12 -3
31 -6 42 -6z m659 -5 c-4 -10 -20 -15 -49 -15 -26 0 -47 6 -55 15 -11 13 -5
15 48 15 50 0 60 -3 56 -15z m349 -10 c-4 -13 -21 -15 -86 -13 -53 2 -82 7
-85 16 -3 9 19 12 87 12 77 0 90 -2 84 -15z m516 -11 c20 -4 22 -7 10 -14 -12
-8 -299 -3 -308 5 -1 2 -1 8 2 12 6 9 253 6 296 -3z m-1608 -43 l-7 -35 -23
30 -23 29 29 6 c15 3 29 5 30 5 1 -1 -2 -17 -6 -35z m739 13 c0 -8 11 -24 25
-36 30 -26 32 -66 7 -123 l-18 -40 -12 35 c-7 19 -21 43 -31 55 -10 11 -21 36
-24 55 -3 19 -8 44 -12 56 -6 18 -3 20 29 16 22 -3 36 -10 36 -18z m-696 -72
c0 -48 -6 -100 -13 -116 -13 -32 -5 -166 10 -166 4 0 8 38 8 85 -1 46 2 89 6
95 12 20 23 9 34 -34 6 -25 20 -51 32 -59 17 -13 19 -19 10 -36 -6 -11 -19
-24 -29 -30 -9 -5 -13 -13 -9 -17 11 -11 40 8 54 37 14 26 22 15 26 -36 2 -23
-6 -34 -37 -55 -45 -31 -83 -29 -96 4 -4 12 -20 40 -34 61 -26 38 -27 43 -24
159 3 120 10 145 35 124 16 -13 17 -4 1 21 -9 15 -9 23 1 35 8 9 16 16 20 16
3 0 6 -39 5 -88z m636 -394 c0 -10 -39 -30 -75 -39 -30 -7 -29 -7 8 -8 25 -1
44 6 58 20 11 11 23 18 27 15 3 -4 0 -12 -6 -18 -18 -18 -14 -53 8 -73 33 -29
27 -87 -11 -120 -17 -14 -29 -29 -25 -32 9 -10 57 38 72 72 l13 30 1 -36 c0
-44 -45 -111 -91 -134 -34 -18 -48 -15 -24 5 26 21 18 69 -21 121 -51 70 -79
89 -131 89 -24 0 -54 -5 -66 -12 -21 -10 -21 -10 -7 7 13 16 13 18 0 13 -8 -2
-26 -21 -39 -41 -25 -38 -41 -40 -41 -6 0 26 -27 79 -41 79 -5 0 -3 -10 5 -22
9 -12 16 -33 16 -46 0 -13 5 -32 11 -43 8 -16 5 -28 -12 -57 -37 -59 -58 -69
-51 -22 10 67 -51 162 -114 179 -28 7 -26 8 24 19 74 17 102 15 145 -8 40 -22
92 -26 102 -10 4 7 -2 9 -17 5 -25 -6 -69 13 -75 32 -3 8 6 7 28 -4 64 -32
246 3 295 58 13 15 19 17 26 7 4 -7 8 -16 8 -20z m50 -91 c0 -16 -3 -17 -15
-7 -8 7 -15 24 -15 39 1 25 1 25 15 7 8 -11 15 -29 15 -39z m-574 -13 c40 -19
87 -106 82 -150 -3 -25 -10 -30 -53 -42 -52 -15 -75 -28 -75 -43 0 -5 7 -9 15
-9 8 0 15 5 15 10 0 20 27 9 48 -20 24 -32 112 -274 112 -307 0 -10 6 -25 12
-31 10 -10 10 -17 0 -32 -13 -22 -3 -27 15 -9 9 9 14 5 19 -15 9 -37 -1 -54
-33 -62 -45 -9 -83 -26 -122 -52 -52 -37 -161 -51 -161 -22 0 5 10 10 23 12
12 2 20 8 17 13 -2 6 -11 9 -18 7 -9 -2 -11 1 -7 9 5 7 3 10 -6 7 -8 -3 -14
-11 -14 -19 0 -17 -27 -19 -32 -2 -3 7 19 24 48 39 29 14 65 35 80 47 35 25
89 100 89 122 0 10 -33 52 -74 94 -40 42 -86 96 -101 120 -15 24 -44 60 -66
81 -33 31 -39 43 -39 78 0 36 6 48 51 93 59 61 107 99 127 99 8 0 29 -7 48
-16z m374 -34 c10 -5 36 -33 59 -61 47 -59 53 -99 19 -123 -25 -18 -88 -22
-88 -6 0 6 15 10 33 10 31 0 57 14 57 32 0 5 -8 4 -17 -1 -10 -6 -34 -12 -54
-16 -37 -6 -78 -39 -64 -53 4 -4 12 0 18 9 8 13 18 7 62 -42 68 -73 68 -73
105 -220 16 -68 37 -139 45 -156 11 -24 12 -40 5 -59 -14 -36 -12 -51 3 -30
12 17 14 17 20 3 4 -12 -10 -33 -43 -66 -28 -28 -50 -55 -50 -60 0 -22 -79
-51 -138 -51 -64 0 -78 6 -61 27 14 16 -3 17 -19 1 -9 -9 -15 -9 -23 -1 -7 7
-2 17 18 32 77 57 95 78 128 139 59 111 47 162 -62 258 -32 28 -74 78 -93 110
-19 33 -47 74 -63 93 -23 27 -28 40 -23 65 7 36 68 129 104 157 27 21 91 26
122 9z"/>
<path d="M1046 2178 c-18 -43 -21 -68 -6 -68 6 0 10 9 10 21 0 11 5 29 11 40
6 11 8 25 6 32 -3 7 -12 -5 -21 -25z"/>
<path d="M1192 2095 c-24 -27 -27 -35 -14 -35 5 0 18 14 30 30 27 36 14 40
-16 5z"/>
<path d="M925 2061 c-3 -6 4 -25 17 -42 17 -23 24 -27 26 -15 4 20 -34 70 -43
57z"/>
<path d="M1070 2046 c-14 -8 -33 -17 -42 -20 -10 -3 -18 -12 -18 -20 0 -12 9
-10 47 9 25 14 52 24 59 23 7 -2 14 2 16 7 5 16 -35 16 -62 1z"/>
<path d="M1005 1748 c-4 -10 -13 -18 -20 -18 -13 0 -25 -21 -25 -46 0 -8 5
-14 10 -14 6 0 10 7 10 16 0 9 10 24 21 33 12 10 19 24 17 32 -5 11 -7 10 -13
-3z"/>
<path d="M1041 1722 c-1 -37 1 -38 83 -46 43 -3 56 -2 48 6 -6 6 -36 13 -66
16 -50 4 -55 7 -59 31 -3 23 -4 22 -6 -7z"/>
<path d="M1573 1660 c-11 -22 -16 -40 -11 -40 10 0 42 70 35 76 -3 3 -13 -13
-24 -36z"/>
<path d="M1050 1667 c0 -5 5 -18 11 -29 9 -17 8 -24 -6 -34 -9 -7 -14 -17 -10
-23 4 -7 14 -4 27 9 33 30 93 27 114 -5 9 -14 19 -23 22 -21 2 3 -4 18 -14 33
-18 27 -20 32 -23 53 0 6 -5 10 -11 10 -5 0 -7 -6 -4 -14 4 -10 -5 -16 -27
-21 -29 -6 -36 -4 -56 21 -13 16 -23 25 -23 21z"/>
<path d="M1290 1641 c-9 -22 -16 -29 -23 -22 -6 6 -18 11 -26 11 -10 0 -7 -7
10 -22 l24 -23 18 33 c10 19 16 39 14 45 -2 6 -9 -4 -17 -22z"/>
<path d="M1100 1592 c0 -5 14 -18 30 -30 35 -26 41 -10 8 19 -25 20 -38 24
-38 11z"/>
<path d="M382 2340 c-109 -67 -124 -398 -20 -485 45 -38 56 -30 15 10 -52 51
-70 120 -65 249 5 113 23 163 79 210 39 33 34 42 -9 16z"/>
<path d="M1966 2286 c-53 -53 -71 -120 -70 -256 0 -98 3 -123 23 -168 13 -29
37 -62 53 -73 37 -27 50 -16 14 12 -14 11 -37 40 -49 62 -20 37 -22 57 -22
177 0 150 12 191 75 243 16 14 30 28 30 31 0 15 -22 3 -54 -28z"/>
<path d="M1243 1501 c-34 -3 -68 -12 -75 -20 -11 -12 -10 -13 7 -6 40 17 122
17 154 1 17 -9 31 -12 31 -6 0 5 -5 10 -11 10 -5 0 -7 5 -4 10 4 6 10 8 15 5
4 -3 19 -1 32 4 18 8 12 10 -32 9 -30 -1 -83 -4 -117 -7z"/>
<path d="M847 1366 c-15 -38 -25 -71 -23 -73 8 -8 36 30 36 48 0 11 5 29 11
40 5 11 9 28 7 37 -2 9 -16 -14 -31 -52z"/>
<path d="M901 1324 c-34 -43 -26 -64 9 -24 16 19 29 38 30 43 0 15 -19 6 -39
-19z"/>
<path d="M710 1331 c0 -5 12 -19 26 -30 28 -22 64 -28 64 -11 0 6 -6 10 -14
10 -7 0 -25 9 -39 20 -28 22 -37 25 -37 11z"/>
<path d="M750 1236 c0 -20 5 -36 10 -36 6 0 10 13 10 29 0 17 -4 33 -10 36 -6
4 -10 -8 -10 -29z"/>
<path d="M820 1160 c0 -38 98 -170 126 -170 24 0 15 18 -21 40 -23 14 -43 40
-62 80 -26 55 -43 74 -43 50z"/>
<path d="M922 780 c-24 -28 -38 -50 -31 -50 14 0 89 76 89 90 0 20 -16 9 -58
-40z"/>
<path d="M1158 1354 c12 -9 22 -25 22 -35 0 -18 17 -35 26 -26 10 10 -33 72
-52 75 -17 2 -16 0 4 -14z"/>
<path d="M1160 1260 c0 -14 -3 -35 -6 -47 -4 -14 -2 -23 4 -23 16 0 27 69 13
83 -8 8 -11 5 -11 -13z"/>
<path d="M1152 1138 c25 -24 60 -70 79 -102 18 -33 35 -54 37 -48 11 34 -108
192 -144 192 -11 0 -1 -15 28 -42z"/>
<path d="M1345 688 c-3 -24 -9 -51 -11 -60 -3 -10 -1 -18 5 -18 5 0 12 14 15
30 3 17 9 44 12 60 3 17 1 30 -4 30 -6 0 -13 -19 -17 -42z"/>
<path d="M1210 592 c0 -11 108 -37 116 -29 4 4 1 8 -7 10 -8 2 -30 9 -50 16
-42 13 -59 14 -59 3z"/>
</g>
</svg>
