<?xml version="1.0" standalone="no"?>
<!DOCTYPE svg PUBLIC "-//W3C//DTD SVG 20010904//EN"
 "http://www.w3.org/TR/2001/REC-SVG-20010904/DTD/svg10.dtd">
<svg version="1.0" xmlns="http://www.w3.org/2000/svg"
 width="300.000000pt" height="300.000000pt" viewBox="0 0 300.000000 300.000000"
 preserveAspectRatio="xMidYMid meet">
<metadata>
Created by potrace 1.10, written by Peter Selinger 2001-2011
</metadata>
<g transform="translate(0.000000,300.000000) scale(0.100000,-0.100000)"
fill="#000000" stroke="none">
<path d="M1335 2180 c-17 -7 -15 -9 12 -9 38 -1 99 -50 106 -84 4 -20 4 -20 6
3 1 32 -22 66 -59 85 -33 17 -37 17 -65 5z"/>
<path d="M1278 2143 c-20 -23 -28 -57 -17 -74 6 -10 9 -7 9 11 0 14 7 36 16
48 19 28 13 39 -8 15z"/>
<path d="M1435 2030 c0 -33 9 -39 19 -14 10 25 7 44 -6 44 -8 0 -13 -13 -13
-30z"/>
<path d="M1255 2010 c3 -25 5 -52 4 -60 -9 -175 -9 -177 19 -208 36 -40 66
-54 97 -46 32 8 50 42 64 119 10 54 14 146 4 100 -35 -168 -50 -205 -82 -205
-34 0 -78 47 -90 94 -22 90 -10 147 26 127 17 -8 29 -5 67 21 58 38 53 49 -6
14 -54 -31 -71 -23 -93 44 l-15 45 5 -45z"/>
<path d="M1420 1980 c0 -19 40 -50 64 -50 l24 0 -20 -72 c-22 -78 -19 -132 8
-157 15 -15 15 -14 5 6 -16 32 -13 108 6 162 l16 48 37 -37 c42 -42 60 -85 53
-123 -4 -18 -1 -27 7 -27 9 0 10 -11 5 -37 -4 -21 -8 -63 -10 -93 -1 -31 -6
-71 -10 -90 -6 -27 -4 -32 5 -23 7 6 15 32 18 58 l5 46 39 -38 c44 -42 78
-100 76 -129 -2 -28 35 -142 39 -122 2 9 -1 26 -6 37 -6 11 -11 37 -11 58 -1
57 -31 113 -92 168 -45 41 -54 54 -47 70 10 25 11 89 2 99 -4 4 -6 26 -4 49 2
45 -32 112 -57 112 -7 0 -16 5 -20 10 -13 19 -61 45 -83 45 -12 0 -23 8 -26
20 -5 20 -23 28 -23 10z"/>
<path d="M1158 1852 c-40 -41 -55 -92 -39 -132 9 -23 10 -21 10 18 1 49 12 75
49 114 39 43 20 43 -20 0z"/>
<path d="M1204 1855 c-3 -14 0 -47 7 -73 7 -26 12 -55 12 -64 -1 -10 2 -20 8
-23 5 -4 9 4 9 17 0 19 2 20 11 8 8 -12 9 -10 4 8 -4 12 -8 32 -9 45 -12 92
-30 128 -42 82z"/>
<path d="M1457 1851 c-4 -18 -6 -54 -6 -80 l1 -46 9 60 c11 70 8 119 -4 66z"/>
<path d="M1115 1671 c-7 -22 3 -87 16 -111 5 -9 6 14 3 55 -8 79 -10 85 -19
56z"/>
<path d="M1501 1603 c2 -66 -1 -84 -20 -115 -16 -26 -31 -38 -47 -39 -13 -1
-28 -2 -33 -3 -15 -2 -85 96 -86 120 0 19 3 21 23 13 29 -11 93 -11 110 0 8 5
-19 10 -70 14 -46 3 -92 8 -103 13 -16 6 -14 0 10 -26 l30 -34 -30 18 -30 19
30 -34 c16 -19 47 -53 68 -75 l39 -42 -48 -27 c-86 -49 -109 -65 -96 -65 19 0
104 45 129 69 24 22 96 30 108 11 3 -5 16 -15 28 -21 19 -10 18 -7 -6 18 -27
29 -27 30 -11 68 12 30 18 35 26 24 7 -10 8 -7 4 11 -3 14 -6 55 -6 93 0 41
-4 67 -11 67 -7 0 -10 -27 -8 -77z"/>
<path d="M1228 1563 c-7 -128 7 -169 16 -51 4 48 5 97 2 110 -3 13 -3 17 0 10
3 -6 10 -9 15 -6 10 6 -7 34 -21 34 -4 0 -10 -44 -12 -97z"/>
<path d="M1192 1584 c-22 -87 -22 -91 -8 -71 14 18 30 96 22 104 -3 3 -9 -12
-14 -33z"/>
<path d="M1536 1467 c0 -45 5 -91 11 -101 8 -14 9 0 7 55 -2 41 -4 86 -4 102
0 15 -3 27 -7 27 -5 0 -8 -37 -7 -83z"/>
<path d="M1088 1488 c-27 -24 -48 -52 -48 -62 0 -9 -7 -31 -16 -47 -14 -28
-22 -62 -40 -170 l-6 -36 -151 -7 c-83 -3 -155 -10 -159 -14 -5 -5 29 -7 74
-6 l83 3 -75 -10 c-41 -5 -79 -11 -85 -13 -12 -6 249 4 363 13 62 5 86 4 94
-6 6 -7 20 -13 31 -13 18 0 16 15 -1 15 -27 1 -45 56 -23 69 15 10 21 95 13
215 l-7 113 -47 -44z m37 -121 c0 -95 -4 -149 -12 -164 -7 -12 -13 -29 -13
-37 0 -14 -17 -16 -122 -14 l-123 1 112 6 c114 6 168 21 74 21 -51 0 -51 0
-45 28 10 40 9 39 66 36 48 -3 50 -2 15 5 -65 14 -71 27 -47 102 11 36 36 86
56 112 20 26 37 47 38 47 0 0 1 -64 1 -143z"/>
<path d="M1624 1451 c3 -18 7 -70 7 -115 1 -80 1 -80 10 -31 10 56 4 142 -12
165 -8 11 -9 6 -5 -19z"/>
<path d="M1221 1379 c-6 -18 -11 -40 -11 -49 0 -10 -7 -20 -15 -24 -8 -3 -15
-18 -15 -33 0 -22 2 -25 10 -13 8 13 10 12 10 -4 0 -35 9 -12 25 68 17 82 15
109 -4 55z"/>
<path d="M2208 1383 c7 -3 12 -24 13 -51 0 -26 5 -56 10 -67 6 -14 8 1 5 48
-4 53 -2 67 9 67 11 0 14 -14 14 -56 -1 -30 2 -58 5 -61 3 -4 6 21 6 55 0 81
18 80 22 0 l3 -63 5 68 5 67 -55 -1 c-30 0 -49 -3 -42 -6z"/>
<path d="M539 1373 c-29 -3 -39 -10 -52 -39 -18 -38 -23 -69 -7 -44 6 10 8 3
5 -25 l-5 -40 13 40 c7 22 20 51 27 65 12 23 12 24 -4 11 -14 -12 -16 -12 -10
3 3 9 15 16 25 16 18 0 18 -2 5 -27 -19 -38 -37 -105 -25 -98 5 4 9 11 9 16 0
6 10 33 21 60 17 38 27 49 44 49 40 0 71 -35 95 -110 12 -38 25 -70 27 -70 9
0 -9 86 -28 128 -13 31 -28 47 -53 57 -20 8 -39 14 -43 13 -4 -1 -24 -3 -44
-5z"/>
<path d="M2187 1340 c-11 -59 -13 -431 -2 -412 10 17 20 361 13 417 l-4 30 -7
-35z"/>
<path d="M2317 1313 c-11 -80 -17 -422 -8 -378 10 45 26 425 18 425 -2 0 -7
-21 -10 -47z"/>
<path d="M451 1309 c-13 -23 -25 -65 -28 -99 l-6 -59 -69 -7 c-73 -7 -91 -21
-71 -53 8 -12 23 -15 64 -13 30 2 59 8 64 14 7 7 -12 8 -57 3 -59 -6 -68 -4
-68 10 0 19 8 22 83 28 l57 6 0 -34 c0 -83 42 -206 75 -218 12 -5 11 -1 -4 21
-46 63 -68 230 -46 337 l8 40 8 -30 c7 -26 8 -25 4 9 -2 21 0 48 6 58 21 39 2
27 -20 -13z"/>
<path d="M556 1323 c-41 -79 -41 -229 -1 -342 9 -25 10 -39 3 -35 -6 4 -9 1
-6 -7 3 -8 9 -14 14 -14 5 0 17 -5 28 -11 16 -10 12 -12 -25 -19 -34 -6 -39
-9 -20 -13 27 -4 109 16 117 30 3 5 -5 6 -19 3 -59 -15 -101 89 -101 250 0 72
5 111 17 139 20 46 15 61 -7 19z"/>
<path d="M1551 1313 c0 -10 4 -27 9 -38 7 -16 9 -13 9 18 1 20 -3 37 -9 37 -5
0 -10 -8 -9 -17z"/>
<path d="M1745 1259 c-46 -17 -47 -19 -15 -15 19 1 42 6 51 10 12 5 18 -1 26
-26 10 -32 11 -32 12 -6 1 30 -8 59 -18 57 -3 -1 -28 -10 -56 -20z"/>
<path d="M1556 1224 c-9 -22 -7 -67 3 -82 5 -8 8 8 8 42 0 60 -1 65 -11 40z"/>
<path d="M1630 1239 c0 -2 7 -22 14 -44 17 -49 16 -49 314 -67 l212 -13 -1 30
c-1 25 -2 26 -6 7 -4 -22 -8 -23 -51 -18 -49 7 -364 26 -419 26 -30 0 -33 3
-33 29 0 16 -7 34 -15 41 -8 7 -15 11 -15 9z"/>
<path d="M1155 1185 c-16 -14 -23 -22 -14 -19 10 3 19 -2 23 -13 6 -15 8 -15
16 -3 9 13 10 13 10 0 0 -13 2 -13 9 -1 6 9 4 19 -5 28 -8 8 -12 19 -9 24 10
15 2 11 -30 -16z"/>
<path d="M622 1178 c-7 -7 -12 -21 -12 -33 0 -27 28 -67 42 -59 7 4 5 10 -6
16 -17 10 -23 68 -6 68 6 0 10 5 10 10 0 14 -13 13 -28 -2z"/>
<path d="M1212 1184 c10 -9 304 -12 319 -3 8 5 -54 9 -155 9 -93 0 -167 -2
-164 -6z"/>
<path d="M1695 1181 c11 -5 94 -11 185 -15 91 -4 188 -9 215 -12 33 -3 45 -2
35 5 -12 7 -374 33 -437 30 -15 0 -15 -1 2 -8z"/>
<path d="M2378 1184 c7 -4 12 -26 12 -59 0 -33 -5 -55 -12 -59 -7 -3 -4 -5 7
-3 17 2 20 10 20 62 0 52 -3 60 -20 62 -11 2 -14 0 -7 -3z"/>
<path d="M2346 1167 c3 -8 1 -33 -5 -56 -7 -31 -6 -41 2 -38 12 4 28 85 20
100 -7 13 -23 8 -17 -6z"/>
<path d="M1308 1153 c46 -2 118 -2 160 0 42 1 5 3 -83 3 -88 0 -123 -2 -77 -3z"/>
<path d="M2432 1150 c9 -6 78 -16 152 -22 108 -9 136 -15 139 -27 3 -10 5 -8
6 6 1 27 -9 30 -129 38 -52 3 -115 8 -140 11 -35 4 -41 3 -28 -6z"/>
<path d="M1695 1095 c9 -22 22 -53 27 -70 13 -36 33 -60 25 -30 -3 11 -8 34
-12 50 -3 17 -17 44 -31 60 l-25 30 16 -40z"/>
<path d="M1821 1068 c1 -50 3 -57 9 -33 11 45 11 95 0 95 -6 0 -9 -27 -9 -62z"/>
<path d="M983 1058 c4 -38 11 -77 17 -87 7 -13 7 -22 0 -26 -5 -3 -10 -1 -10
6 0 8 -6 7 -17 -3 -10 -9 -41 -27 -69 -41 -27 -14 -57 -33 -64 -43 -10 -11 7
-6 48 15 41 21 62 27 63 19 0 -7 5 -2 10 11 8 19 12 21 24 11 14 -12 20 -7 16
14 -1 5 5 6 13 3 10 -4 13 -1 10 7 -3 8 5 16 18 21 22 7 22 7 -7 14 -29 6 -30
8 -33 66 -2 33 -8 65 -14 70 -7 7 -9 -10 -5 -57z"/>
<path d="M1096 1086 c-14 -31 -23 -107 -11 -94 8 7 36 120 32 125 -3 2 -12
-12 -21 -31z"/>
<path d="M690 1022 c-12 -71 -13 -89 -3 -77 15 22 26 88 21 135 -2 25 -7 9
-18 -58z"/>
<path d="M2460 1091 c52 -13 268 -23 249 -11 -8 5 -76 11 -150 14 -85 4 -121
2 -99 -3z"/>
<path d="M2246 1065 c-3 -9 -5 -51 -5 -93 l2 -77 8 89 c9 89 7 112 -5 81z"/>
<path d="M2213 985 c0 -44 2 -61 4 -37 2 23 2 59 0 80 -2 20 -4 1 -4 -43z"/>
<path d="M2278 1015 c-4 -22 -7 -58 -7 -80 l1 -40 9 40 c6 22 9 58 7 80 l-3
40 -7 -40z"/>
<path d="M469 998 c10 -41 25 -70 46 -88 13 -11 15 -10 9 6 -6 16 -5 17 7 7
26 -25 28 -12 4 23 -14 20 -25 43 -25 50 0 7 -4 15 -9 19 -9 5 -2 -27 15 -69
5 -13 4 -17 -4 -13 -6 4 -16 24 -22 45 -16 49 -31 64 -21 20z"/>
<path d="M1805 989 c-4 -6 -16 -14 -28 -18 -12 -5 -16 -10 -9 -14 6 -4 23 4
39 18 15 13 23 25 16 25 -6 0 -15 -5 -18 -11z"/>
<path d="M1076 949 c-4 -15 -6 -41 -4 -59 l3 -33 -104 -3 c-64 -1 -108 -7
-115 -15 -8 -9 1 -10 44 -5 30 3 85 6 121 6 45 0 68 4 71 13 2 6 1 37 -2 67
-5 47 -7 51 -14 29z"/>
<path d="M1801 951 c-8 -14 -7 -18 2 -17 6 0 12 -2 12 -6 0 -12 42 -39 67 -43
13 -3 35 -14 50 -25 16 -11 28 -16 28 -11 0 6 -19 23 -43 39 -23 17 -49 42
-56 56 -17 30 -46 34 -60 7z"/>
<path d="M1744 937 c3 -10 6 -36 6 -58 0 -21 4 -39 9 -39 13 0 6 89 -9 103
-10 10 -12 8 -6 -6z"/>
<path d="M2191 886 c2 -2 26 -7 53 -10 33 -5 46 -4 41 3 -3 6 -27 11 -52 11
-26 0 -44 -2 -42 -4z"/>
<path d="M1781 836 c13 -14 116 -26 140 -17 23 10 23 10 -6 10 -16 1 -55 4
-85 7 -30 4 -52 4 -49 0z"/>
</g>
</svg>
